/* XPM */
static char *wolf_r[] = {
/* columns rows colors chars-per-pixel */
"64 64 19 1 ",
"  c black",
". c #010102",
"X c #070103",
"o c #1C162E",
"O c #201C31",
"+ c #672D35",
"@ c #472C53",
"# c #433053",
"$ c #3A5264",
"% c #445363",
"& c #A05151",
"* c #8A6751",
"= c #CF766A",
"- c #6A768F",
"; c #657791",
": c #DDB389",
"> c #FFD499",
", c #F4D4A9",
"< c #0x58e87c",
/* pixels */
"<<<<<<<<<<<<<<<<<<<<<<<<<<<<<<<<<<<<<<<<<<<<<<<<<<<<<<<<<<<<<<<<",
"<<<<<<<<<<<<<<<<<<<<<<<<<<<<<<<<<<<<<<<<<<<<<<<<<<<<<<<<<<<<<<<<",
"<<<<<<<<<<<<<<<<<<<<<<<<<<<<<<<<<<<<<<<<<<<<<<<<<<<<<<<<<<<<<<<<",
"<<<<<<<<<<<<<<<<<<<<<<<<<<<<<<<<<<<<<<<<<<<<<<<<<<<<<<<<<<<<<<<<",
"<<<<<<<<<<<<<<<<<<<<<<<<<<<<<<<<<<<<<<<<<<<<<<<<<<<<<<<<<<<<<<<<",
"<<<<<<<<<<<<<<<<<<<<<<<<<<<<<<<<<<<<<<<<<<<<<<<<<<<<<<<<<<<<<<<<",
"<<<<<<<<<<<<<<<<<<<<<<<<<<<<<<<<<<<<<<<<<<<<<<<<<<<<<<<<<<<<<<<<",
"<<<<<<<<<<<<<<<<<<<<<<<<<<<<<<<<   .....  <<<<<< <<<<<<<<<<<<<<<",
"<<<<<<<<<<<<<<<<<<<<<<<<<<<<<<< ----------.<<<<.=.<<<<<<<<<<<<<<",
"<<<<<<<<<<<<<<<<<<<<<<<<<<<<<. ----%-%%----..< ==.<<<<<<<<<<<<<<",
"<<<<<<<<<<<<<<<<<<<<<<<<<<< .------.%%%%%%---..=&O  <<<<<<<<<<<<",
"<<<<<<<<<<<<<<<<<<<<<<<<<< ------%----.%%%%----==&.-.<<<<<<<<<<<",
"<<<<<<<<<<<<<<<<<<<<<<<<<<.----%%%#%---.#%%%---=&+=.-..<<<<<<<<<",
"<<<<<<<<<<<<<<<<<<<<<<<< .---%%%####%---##%%%--&++#O--- <<<<<<<<",
"<<<<<<<<<<<<<<<<<<<<<<< -----OOOO####---.#%%%%%.&+OO%%%-.<<<<<<<",
"<<<<<<<<<<<<<<<<<<<<<<< ----%OOOOO###%--.####%%#..O-#%#%-.<<<<<<",
"<<<<<<<<<<<<<<<<<<<<<<< ;;;$$  oooo@@@$;; @@@@@ ;;o$@@@>  <<<<<<",
"<<<<<<<<<<<<<<<<<<<<<< ;;;;$$oo ooo@@@$;; @oo@o $X$@o@@  ; <<<<<",
"<<<<<<<<<<<<<<<<<<<<<< ;;;;$@ooo ooo@@$;; @oooo$X$$$ooo@@$  <<<<",
"<<<<<<<<<<<<<<<<<<<<< ;;;;;$@oooXX o@@$;; Xoooo o$$oo : o$;; <<<",
"<<<<<<<<<<<<<<<<<<<<< ;;;$;$@ooXXXXoo@$; XXXXooo o$ooo  oo$$  <<",
"<<<<<<<<<<<<<<<<<<<<< ;;$$@@@oXXXXXoo$;;XX  XXXXXX  ooo * o@  <<",
"<<<<<<<<<<<<<<<<<<<<< ;;$$@@@XXXXXXoo$;;  X   XXX <<  oo ,  <<<<",
"<<<<<<<<<<<<<<<<<<<<< ;;$@@@oXXXXX oo$; XXo <<   <<<<< o@ <<<<<<",
"<<<<<<<<<<<<<<<<<<<< ;;$$@@  XXX   @@; Xoo <<<<<<<<<<<<  <<<<<<<",
"<<<<<<<<<<<<<<<<<<<< ;;;$@@oX     o@@ XXoo <<<<<<<<<<<<<<<<<<<<<",
"<<<<<<<<<<<<<<<<<<<< ;;$;@@ooX o oo@;XXo@@ <<<<<<<<<<<<<<<<<<<<<",
"<<<<<<<<<<<<<<<<<<< ;;$@;$@ooX   oo$;XXo@ <<<<<<<<<<<<<<<<<<<<<<",
"<<<<<<<<<<<<<<<<<<< ;;$@$;@oX o oo@; XXo@ <<<<<<<<<<<<<<<<<<<<<<",
"<<<<<<<<<<<<<<<<<< ;;$o$$;;;@@  o@$; Xoo@ <<<<<<<<<<<<<<<<<<<<<<",
"<<<<<<<<<<<<<<<<<< ;;oo@$;;$;$@ $;;; Xoo@@ <<<<<<<<<<<<<<<<<<<<<",
"<<<<<<<<<<<<<<<<<< ;$oXo$$;;;$ o@@; < Xo@@ <<<<<<<<<<<<<<<<<<<<<",
"<<<<<<<<<<<<<<<<<< ;o  o@@;;$$ o@$; < XXo@ <<<<<<<<<<<<<<<<<<<<<",
"<<<<<<<<<<<<<<<<< ;$o XX@@@$$; o@$; << Xo@@ <<<<<<<<<<<<<<<<<<<<",
"<<<<<<<<<<<<<<<< ;;@X XX Xo@@$ o@$ ; <<<Xo@@ <<<<<<<<<<<<<<<<<<<",
"<<<<<<<<<<<<<<<< ;$o  oXX  oo@ o$; ;$ << X@@ <<<<<<<<<<<<<<<<<<<",
"<<<<<<<<<<<<<<  ;;$o  ooXXX Xo o$ $;; <<< o@@ <<<<<<<<<<<<<<<<<<",
"<<<<<<<<<<<<  ;;$$@X  ooXXXX  oo; $;; <<<< X@ <<<<<<<<<<<<<<<<<<",
"<<<<<<      ;;;$$$@ < oooXX < o@ o@$;; <<<< X  <<<<<<<<<<<<<<<<<",
"<<<<< ;;;;;;;;$$@@o <<ooXXX < o$ Xo@$;$ <<<< @@ <<<<<<<<<<<<<<<<",
"<<<< $;;;;$$@;$o@oo <<ooXXX < o$< X@@;; <<<< @@ <<<<<<<<<<<<<<<<",
"<<< @$$$$$$@@$@o@oX<<<ooXXX<<o$;< Xo@;; <<<< o@ <<<<<<<<<<<<<<<<",
"<<< o@@@@ooo$@oXoXX<  ooXXX< o$  o@$;  <<<<< oo <<<<<<<<<<<<<<<<",
"<<< XoooooXo@@XXoX  ooooXXX< o$  o@;$ <<<<<<<Xo <<<<<<<<<<<<<<<<",
"<<<< XXXXXooXXXXX  oooXXXX  o@; o$;  <<<<<<<< X@ <<<<<<<<<<<<<<<",
"<<<<< XX  oXXX  X ooooXXXX  o@; $;; <<<<<<<<< Xo@ <<<<<<<<<<<<<<",
"<<<<<<   XXX  << oooXXX   <oo@ o$; <<<<<<<<<<< oo@ <<<<<<<<<<<<<",
"<<<<<<<<<<<< @oooXX  <<<<<< o o@; <<<<<<<<<<<<  o  <<<<<<<<<<<<<",
"<<<<<<<<<<<< @oXXX <<<<<<<<< oo@$ <<<<<<<<<<<<  o <<<<<<<<<<<<<<",
"<<<<<<<<<<< @oXX <<<<<<<<<<< o@$ <<<<<<<<<<<<<<  <<<<<<<<<<<<<<<",
"<<<<<<<<<<< ooX <<<<<<<<<<<<<o@@ <<<<<<<<<<<<<<<<<<<<<<<<<<<<<<<",
"<<<<<<<<<<< oX <<<<<<<<<<<<<<Xo@ <<<<<<<<<<<<<<<<<<<<<<<<<<<<<<<",
"<<<<<<<<<< oXX<<<<<<<<<<<<<<< X@ <<<<<<<<<<<<<<<<<<<<<<<<<<<<<<<",
"<<<<<<<<<< oX <<<<<<<<<<<<<<< Xo <<<<<<<<<<<<<<<<<<<<<<<<<<<<<<<",
"<<<<<<<<<< oX <<<<<<<<<<<<<<<< o$ <<<<<<<<<<<<<<<<<<<<<<<<<<<<<<",
"<<<<<<<<< oo <<<<<<<<<<<<<<<<<< @ <<<<<<<<<<<<<<<<<<<<<<<<<<<<<<",
"<<<<<<<< ooo <<<<<<<<<<<<<<<<<< @$ <<<<<<<<<<<<<<<<<<<<<<<<<<<<<",
"<<<<<<<< Xoo <<<<<<<<<<<<<<<<<<<o@$<<<<<<<<<<<<<<<<<<<<<<<<<<<<<",
"<<<<<<<<<Xoo < <<<<<<<<<<<<<<<<<X@@ <<<<<<<<<<<<<<<<<<<<<<<<<<<<",
"<<<<<<<<<XXoo @  <<<<<<<<<<<<<<<XX@$    <<<<<<<<<<<<<<<<<<<<<<<<",
"<<<<<<<<< XXXoo @ <<<<<<<<<<<<<<<  o@ @$ <<<<<<<<<<<<<<<<<<<<<<<",
"<<<<<<<<<<<        <<<<<<<<<<<<<<<        <<<<<<<<<<<<<<<<<<<<<<",
"<<<<<<<<<<<<<<<<<<<<<<<<<<<<<<<<<<<<<<<<<<<<<<<<<<<<<<<<<<<<<<<<",
"<<<<<<<<<<<<<<<<<<<<<<<<<<<<<<<<<<<<<<<<<<<<<<<<<<<<<<<<<<<<<<<<"
};
