/* XPM */
static char *wolf_l[] = {
/* columns rows colors chars-per-pixel */
"64 64 19 1 ",
"  c black",
". c #010102",
"X c #070103",
"o c #1C162E",
"O c #201C31",
"+ c #672D35",
"@ c #472C53",
"# c #433053",
"$ c #3A5264",
"% c #445363",
"& c #A05151",
"* c #8A6751",
"= c #CF766A",
"- c #6A768F",
"; c #657791",
": c #DDB389",
"> c #FFD499",
", c #F4D4A9",
"< c #0x58e87c",
/* pixels */
"<<<<<<<<<<<<<<<<<<<<<<<<<<<<<<<<<<<<<<<<<<<<<<<<<<<<<<<<<<<<<<<<",
"<<<<<<<<<<<<<<<<<<<<<<<<<<<<<<<<<<<<<<<<<<<<<<<<<<<<<<<<<<<<<<<<",
"<<<<<<<<<<<<<<<<<<<<<<<<<<<<<<<<<<<<<<<<<<<<<<<<<<<<<<<<<<<<<<<<",
"<<<<<<<<<<<<<<<<<<<<<<<<<<<<<<<<<<<<<<<<<<<<<<<<<<<<<<<<<<<<<<<<",
"<<<<<<<<<<<<<<<<<<<<<<<<<<<<<<<<<<<<<<<<<<<<<<<<<<<<<<<<<<<<<<<<",
"<<<<<<<<<<<<<<<<<<<<<<<<<<<<<<<<<<<<<<<<<<<<<<<<<<<<<<<<<<<<<<<<",
"<<<<<<<<<<<<<<<<<<<<<<<<<<<<<<<<<<<<<<<<<<<<<<<<<<<<<<<<<<<<<<<<",
"<<<<<<<<<<<<<<< <<<<<<  .....   <<<<<<<<<<<<<<<<<<<<<<<<<<<<<<<<",
"<<<<<<<<<<<<<< =.<<<<.----------.<<<<<<<<<<<<<<<<<<<<<<<<<<<<<<<",
"<<<<<<<<<<<<<<.== <..----%%-%----..<<<<<<<<<<<<<<<<<<<<<<<<<<<<<",
"<<<<<<<<<<<<  O&=..---%%%%%%.------. <<<<<<<<<<<<<<<<<<<<<<<<<<<",
"<<<<<<<<<<< -.&==----%%%%.----%------ <<<<<<<<<<<<<<<<<<<<<<<<<<",
"<<<<<<<<<..-.=+&=---%%%#.---%#%%%----.<<<<<<<<<<<<<<<<<<<<<<<<<<",
"<<<<<<<< ---O#++&--%%%##---%####%%%---. <<<<<<<<<<<<<<<<<<<<<<<<",
"<<<<<<<.-%%%OO+&.%%%%%#.---####OOOO----- <<<<<<<<<<<<<<<<<<<<<<<",
"<<<<<<.-%#%#-O..#%%####.--%###OOOOO%---- <<<<<<<<<<<<<<<<<<<<<<<",
"<<<<<<  >@@@$o;; @@@@@ ;;$@@@oooo  $$;;; <<<<<<<<<<<<<<<<<<<<<<<",
"<<<<< ;  @@o@$X$ o@oo@ ;;$@@@ooo oo$$;;;; <<<<<<<<<<<<<<<<<<<<<<",
"<<<<  $@@ooo$$$X$oooo@ ;;$@@ooo ooo@$;;;; <<<<<<<<<<<<<<<<<<<<<<",
"<<< ;;$o : oo$$o ooooX ;;$@@o XXooo@$;;;;; <<<<<<<<<<<<<<<<<<<<<",
"<<  $$oo  ooo$o oooXXXX ;$@ooXXXXoo@$;$;;; <<<<<<<<<<<<<<<<<<<<<",
"<<  @o * ooo  XXXXXX  XX;;$ooXXXXXo@@@$$;; <<<<<<<<<<<<<<<<<<<<<",
"<<<<  , oo  << XXX   X  ;;$ooXXXXXX@@@$$;; <<<<<<<<<<<<<<<<<<<<<",
"<<<<<< @o <<<<<   << oXX ;$oo XXXXXo@@@$;; <<<<<<<<<<<<<<<<<<<<<",
"<<<<<<<  <<<<<<<<<<<< ooX ;@@   XXX  @@$$;; <<<<<<<<<<<<<<<<<<<<",
"<<<<<<<<<<<<<<<<<<<<< ooXX @@o     Xo@@$;;; <<<<<<<<<<<<<<<<<<<<",
"<<<<<<<<<<<<<<<<<<<<< @@oXX;@oo o Xoo@@;$;; <<<<<<<<<<<<<<<<<<<<",
"<<<<<<<<<<<<<<<<<<<<<< @oXX;$oo   Xoo@$;@$;; <<<<<<<<<<<<<<<<<<<",
"<<<<<<<<<<<<<<<<<<<<<< @oXX ;@oo o Xo@;$@$;; <<<<<<<<<<<<<<<<<<<",
"<<<<<<<<<<<<<<<<<<<<<< @ooX ;$@o  @@;;;$$o$;; <<<<<<<<<<<<<<<<<<",
"<<<<<<<<<<<<<<<<<<<<< @@ooX ;;;$ @$;$;;$@oo;; <<<<<<<<<<<<<<<<<<",
"<<<<<<<<<<<<<<<<<<<<< @@oX < ;@@o $;;;$$oXo$; <<<<<<<<<<<<<<<<<<",
"<<<<<<<<<<<<<<<<<<<<< @oXX < ;$@o $$;;@@o  o; <<<<<<<<<<<<<<<<<<",
"<<<<<<<<<<<<<<<<<<<< @@oX << ;$@o ;$$@@@XX o$; <<<<<<<<<<<<<<<<<",
"<<<<<<<<<<<<<<<<<<< @@oX<<< ; $@o $@@oX XX X@;; <<<<<<<<<<<<<<<<",
"<<<<<<<<<<<<<<<<<<< @@X << $; ;$o @oo  XXo  o$; <<<<<<<<<<<<<<<<",
"<<<<<<<<<<<<<<<<<< @@o <<< ;;$ $o oX XXXoo  o$;;  <<<<<<<<<<<<<<",
"<<<<<<<<<<<<<<<<<< @X <<<< ;;$ ;oo  XXXXoo  X@$$;;  <<<<<<<<<<<<",
"<<<<<<<<<<<<<<<<<  X <<<< ;;$@o @o < XXooo < @$$$;;;      <<<<<<",
"<<<<<<<<<<<<<<<< @@ <<<< $;$@oX $o < XXXoo<< o@@$$;;;;;;;; <<<<<",
"<<<<<<<<<<<<<<<< @@ <<<< ;;@@X <$o < XXXoo<< oo@o$;@$$;;;;$ <<<<",
"<<<<<<<<<<<<<<<< @o <<<< ;;@oX <;$o<<XXXoo<<<Xo@o@$@@$$$$$$@ <<<",
"<<<<<<<<<<<<<<<< oo <<<<<  ;$@o  $o <XXXoo  <XXoXo@$ooo@@@@o <<<",
"<<<<<<<<<<<<<<<< oX<<<<<<< $;@o  $o <XXXoooo  XoXX@@oXoooooX <<<",
"<<<<<<<<<<<<<<< @X <<<<<<<<  ;$o ;@o  XXXXooo  XXXXXooXXXXX <<<<",
"<<<<<<<<<<<<<< @oX <<<<<<<<< ;;$ ;@o  XXXXoooo X  XXXo  XX <<<<<",
"<<<<<<<<<<<<< @oo <<<<<<<<<<< ;$o @oo<   XXXooo <<  XXX   <<<<<<",
"<<<<<<<<<<<<<  o  <<<<<<<<<<<< ;@o o <<<<<<  XXooo@ <<<<<<<<<<<<",
"<<<<<<<<<<<<<< o  <<<<<<<<<<<< $@oo <<<<<<<<< XXXo@ <<<<<<<<<<<<",
"<<<<<<<<<<<<<<<  <<<<<<<<<<<<<< $@o <<<<<<<<<<< XXo@ <<<<<<<<<<<",
"<<<<<<<<<<<<<<<<<<<<<<<<<<<<<<< @@o<<<<<<<<<<<<< Xoo <<<<<<<<<<<",
"<<<<<<<<<<<<<<<<<<<<<<<<<<<<<<< @oX<<<<<<<<<<<<<< Xo <<<<<<<<<<<",
"<<<<<<<<<<<<<<<<<<<<<<<<<<<<<<< @X <<<<<<<<<<<<<<<XXo <<<<<<<<<<",
"<<<<<<<<<<<<<<<<<<<<<<<<<<<<<<< oX <<<<<<<<<<<<<<< Xo <<<<<<<<<<",
"<<<<<<<<<<<<<<<<<<<<<<<<<<<<<< $o <<<<<<<<<<<<<<<< Xo <<<<<<<<<<",
"<<<<<<<<<<<<<<<<<<<<<<<<<<<<<< @ <<<<<<<<<<<<<<<<<< oo <<<<<<<<<",
"<<<<<<<<<<<<<<<<<<<<<<<<<<<<< $@ <<<<<<<<<<<<<<<<<< ooo <<<<<<<<",
"<<<<<<<<<<<<<<<<<<<<<<<<<<<<<$@o<<<<<<<<<<<<<<<<<<< ooX <<<<<<<<",
"<<<<<<<<<<<<<<<<<<<<<<<<<<<< @@X<<<<<<<<<<<<<<<<< < ooX<<<<<<<<<",
"<<<<<<<<<<<<<<<<<<<<<<<<    $@XX<<<<<<<<<<<<<<<  @ ooXX<<<<<<<<<",
"<<<<<<<<<<<<<<<<<<<<<<< $@ @o  <<<<<<<<<<<<<<< @ ooXXX <<<<<<<<<",
"<<<<<<<<<<<<<<<<<<<<<<        <<<<<<<<<<<<<<<        <<<<<<<<<<<",
"<<<<<<<<<<<<<<<<<<<<<<<<<<<<<<<<<<<<<<<<<<<<<<<<<<<<<<<<<<<<<<<<",
"<<<<<<<<<<<<<<<<<<<<<<<<<<<<<<<<<<<<<<<<<<<<<<<<<<<<<<<<<<<<<<<<"
};
