/* XPM */
static char *wolf[] = {
/* columns rows colors chars-per-pixel */
"64 57 122 2 ",
"   c #030102",
".  c #080206",
"X  c #05030C",
"o  c #0A040D",
"O  c #07090E",
"+  c #070510",
"@  c #0B0613",
"#  c #0F0816",
"$  c #0B0718",
"%  c #0D0919",
"&  c #110817",
"*  c #120C1D",
"=  c #190D1E",
"-  c #0D1117",
";  c #0C141A",
":  c #0F181F",
">  c #11151C",
",  c #13181F",
"<  c #29100D",
"1  c #31121C",
"2  c #0E0C27",
"3  c #140F22",
"4  c #180E23",
"5  c #161025",
"6  c #191125",
"7  c #121C24",
"8  c #181E27",
"9  c #1B152D",
"0  c #1A192C",
"q  c #1F1731",
"w  c #1E1C31",
"e  c #24162C",
"r  c #301D21",
"t  c #230537",
"y  c #241733",
"u  c #2D1433",
"i  c #241A33",
"p  c #2B1A34",
"a  c #2C1D3A",
"s  c #311E3C",
"d  c #1A2029",
"f  c #1C2333",
"g  c #212135",
"h  c #222934",
"j  c #26243B",
"k  c #242D39",
"l  c #30203E",
"z  c #29323E",
"x  c #551C20",
"c  c #483326",
"v  c #43362C",
"b  c #583F2F",
"n  c #44233F",
"m  c #6B2633",
"M  c #762932",
"N  c #321944",
"B  c #073340",
"V  c #2D2D41",
"C  c #352242",
"Z  c #3A2345",
"A  c #352B47",
"S  c #3D2649",
"D  c #3C2B4B",
"F  c #233440",
"G  c #2A3440",
"H  c #263945",
"J  c #2A3D4B",
"K  c #36324C",
"L  c #3B314E",
"P  c #333C4B",
"I  c #3E3653",
"U  c #3E3D57",
"Y  c #3F3F59",
"T  c #40274B",
"R  c #41294D",
"E  c #462C52",
"W  c #482D54",
"Q  c #453356",
"!  c #433C59",
"~  c #483D5D",
"^  c #354453",
"/  c #3B4255",
"(  c #3E445B",
")  c #354A5C",
"_  c #3C4A5E",
"`  c #3D4C61",
"'  c #375162",
"]  c #3B5264",
"[  c #3F5668",
"{  c #41415C",
"}  c #765D46",
"|  c #785841",
" . c #4D4563",
".. c #424E61",
"X. c #465266",
"o. c #43556A",
"O. c #49556A",
"+. c #45596D",
"@. c #4B596E",
"#. c #475C71",
"$. c #4C5D72",
"%. c #525C75",
"&. c #4C6176",
"*. c #4E6378",
"=. c #516075",
"-. c #53647A",
";. c #55687F",
":. c #813037",
">. c #914840",
",. c #85735C",
"<. c #C1625F",
"1. c #CE655D",
"2. c #E27267",
"3. c #C2A175",
"4. c #5C6580",
"5. c #5B6D85",
"6. c #5E6F88",
"7. c #5F7189",
"8. c #62748D",
"9. c #657791",
"0. c #667892",
"q. c #0x58e87c",
/* pixels */
"q.q.q.q.q.q.q.q.q.q.q.q.q.q.q.q.q.q.q.q.q.q.q.q.q.q.q.q.q.q.q.q.q.q.q.q.q.q.q.q.q.q.q.q.q.q.q.q.q.q.q.q.q.q.q.q.q.q.q.q.q.q.q.q.",
"q.q.q.q.q.q.q.q.q.q.q.q.q.q.q.q.q.q.q.q.q.q.q.q.q.q.q.q.q.q.q.q.q.q.q.q.q.q.q.q.q.q.q.q.q.q.q.q.q.q.q.q.q.q.q.q.q.q.q.q.q.q.q.q.",
"q.q.q.q.q.q.q.q.q.q.q.q.q.q.q.q.q.q.q.q.q.q.q.q.q.q.q.q.q.q.q.q.q.q.q.q.q.q.q.q.q.q.q.q.q.q.q.q.q.q.q.q.q.q.q.q.q.q.q.q.q.q.q.q.",
"q.q.q.q.q.q.q.q.q.q.q.q.q.q.q.q.q.q.q.q.q.q.q.q.q.q.q.q.q.q.q.q.q.q.q.q.q.q.q.q.q.q.q.q.q.q.q.q.q.q.q.q.q.q.q.q.q.q.q.q.q.q.q.q.",
"q.q.q.q.q.q.q.q.q.q.q.q.q.q.q.q.q.q.q.q.q.q.q.q.q.q.q.q.q.q.q.q.q.q.q.q.q.q.q.q.q.q.q.q.q.q.q.q.q.q.q.q.q.q.q.q.q.q.q.q.q.q.q.q.",
"q.q.q.q.q.q.q.q.q.q.q.q.q.q.q.q.q.q.q.q.q.q.q.q.q.q.q.q.q.q.q.q.q.q.q.q.q.q.q.q.q.q.q.q.q.q.q.q.q.q.q.q.q.q.q.q.q.q.q.q.q.q.q.q.",
"q.q.q.q.q.q.q.q.q.q.q.q.q.q.q.q.q.q.q.q.q.q.q.q.q.q.q.q.q.q.q.q.q.q.q.q.q.q.q.q.q.q.q.q.q.q.q.q.q.q.q.q.q.q.q.q.q.q.q.q.q.q.q.q.",
"q.q.q.q.q.q.q.q.q.q.q.q.q.q.q.q.q.q.q.q.q.q.q.q.q.q.q.q.q.q.q.q.q.q.h h h h q.q.q.q.q.q.q.q.q.q.q.q.q.q.q.q.q.q.q.q.q.q.q.q.q.q.",
"q.q.q.q.q.q.q.q.q.q.q.q.q.q.q.q.q.q.q.q.q.q.q.q.q.q.q.q.q.q.q.O 6.6.0.0.9.9.5.8 q.q.q.>.< q.q.q.q.q.q.q.q.q.q.q.q.q.q.q.q.q.q.q.",
"q.q.q.q.q.q.q.q.q.q.q.q.q.q.q.q.q.q.q.q.q.q.q.q.q.q.q.q.q., -.0./ _ &.&.9.9.0.9.%.    2.4 q.q.q.q.q.q.q.q.q.q.q.q.q.q.q.q.q.q.q.",
"q.q.q.q.q.q.q.q.q.q.q.q.q.q.q.q.q.q.q.q.q.q.q.q.q.q.q.q.@.0.0.0.5.7.X.^ *.#.5.0.0.0.[ 2.1.r G q.q.q.q.q.q.q.q.q.q.q.q.q.q.q.q.q.",
"q.q.q.q.q.q.q.q.q.q.q.q.q.q.q.q.q.q.q.q.q.q.q.q.q.q.q.@.9.0.5.I ` X.5.8.P ` 6.' ' 8.B 1.:.<.%.$.P q.q.q.q.q.q.q.q.q.q.q.q.q.q.q.",
"q.q.q.q.q.q.q.q.q.q.q.q.q.q.q.q.q.q.q.q.q.q.q.q.q.q.$.9.9.] w Z E W o.7.9.u W ' ' [ *.x M m ` ' 8.k q.q.q.q.q.q.q.q.q.q.q.q.q.q.",
"q.q.q.q.q.q.q.q.q.q.q.q.q.q.q.q.q.q.q.q.q.q.q.q.q.- 9.9.+.) 9 9 C E +.9.0.X.E Q Q ` ` T 1 z 8.` A $.8 q.q.q.q.q.q.q.q.q.q.q.q.q.",
"q.q.q.q.q.q.q.q.q.q.q.q.q.q.q.q.q.q.q.q.q.q.q.q., 8.9.7.] g 9 9 9 C Q $.0.7.4 E W W S P -...~ W N 3.  q.q.q.q.q.q.q.q.q.q.q.q.q.",
"q.q.q.q.q.q.q.q.q.q.q.q.q.q.q.q.q.q.q.q.q.q.q.q.X.9.9.5.U 5 * 6 9 i E { 5.9.@ 9 9 C 4 H J ` j a C t -.k q.q.q.q.q.q.q.q.q.q.q.q.",
"q.q.q.q.q.q.q.q.q.q.q.q.q.q.q.q.q.q.q.q.q.q.q.q.8.8.8.' E i @ . 6 9 S E ' 0.X 6 9 9 5 k ' f L 2 } e ' 8.z q.q.q.q.q.q.q.q.q.q.q.",
"q.q.q.q.q.q.q.q.q.q.q.q.q.q.q.q.q.q.q.q.q.q.q.k 8.0.-.! E i @ . . 9 i W o.$..   . 5 9 5 i _ 9 9 | c i ` -.  q.q.q.q.q.q.q.q.q.q.",
"q.q.q.q.q.q.q.q.q.q.q.q.q.q.q.q.q.q.q.q.q.q.q.k 9.9.' E R q @ . . $ i Q 5.7         . o . : X 9 q b v e p   q.q.q.q.q.q.q.q.q.q.",
"q.q.q.q.q.q.q.q.q.q.q.q.q.q.q.q.q.q.q.q.q.q.q.k 9.-.{ E a &   . . + T ` O.@ s q.q.q.    q.q.q.q.3 y ,.q.q.q.q.q.q.q.q.q.q.q.q.q.",
"q.q.q.q.q.q.q.q.q.q.q.q.q.q.q.q.q.q.q.q.q.q.q.%.8.&.{ p $ . * * + i Q 6.  a p q.q.q.q.q.q.q.q.q.q.q.q.q.q.q.q.q.q.q.q.q.q.q.q.q.",
"q.q.q.q.q.q.q.q.q.q.q.q.q.q.q.q.q.q.q.q.q.q.q.8.0.;.{ S 9     2 3 a [ G 5 S   q.q.q.q.q.q.q.q.q.q.q.q.q.q.q.q.q.q.q.q.q.q.q.q.q.",
"q.q.q.q.q.q.q.q.q.q.q.q.q.q.q.q.q.q.q.q.q.q.q.8.0.0.{ E 9 @ $   3 W 6.  i E   q.q.q.q.q.q.q.q.q.q.q.q.q.q.q.q.q.q.q.q.q.q.q.q.q.",
"q.q.q.q.q.q.q.q.q.q.q.q.q.q.q.q.q.q.q.q.q.q.q.8.8.0.{ L o 6 X   9  .k . S s q.q.q.q.q.q.q.q.q.q.q.q.q.q.q.q.q.q.q.q.q.q.q.q.q.q.",
"q.q.q.q.q.q.q.q.q.q.q.q.q.q.q.q.q.q.q.q.q.q.P / Q 6.9.8.) S   9 C O.8 6 E s q.q.q.q.q.q.q.q.q.q.q.q.q.q.q.q.q.q.q.q.q.q.q.q.q.q.",
"q.q.q.q.q.q.q.q.q.q.q.q.q.q.q.q.q.q.q.q.q.q.^ g l _ 9.8.9.9.H 9  .5.. 6 D s q.q.q.q.q.q.q.q.q.q.q.q.q.q.q.q.q.q.q.q.q.q.q.q.q.q.",
"q.q.q.q.q.q.q.q.q.q.q.q.q.q.q.q.q.q.q.q.q.q.8.w 3 ! ' 9.9.8.4 p ;.O.. . S W   q.q.q.q.q.q.q.q.q.q.q.q.q.q.q.q.q.q.q.q.q.q.q.q.q.",
"q.q.q.q.q.q.q.q.q.q.q.q.q.q.q.q.q.q.q.q.q.X.-.+ o 3 E ` ` 5.5 %.8.  q.. 9 W   q.q.q.q.q.q.q.q.q.q.q.q.q.q.q.q.q.q.q.q.q.q.q.q.q.",
"q.q.q.q.q.q.q.q.q.q.q.q.q.q.q.q.q.q.q.q.8 8.0 X + . 5 s E E 5 D *.k ;   3 W   q.q.q.q.q.q.q.q.q.q.q.q.q.q.q.q.q.q.q.q.q.q.q.q.q.",
"q.q.q.q.q.q.q.q.q.q.q.q.q.q.q.q.q.q.q.> 8.;.5 X 9       & i $ Z $.#.;.q.  C   q.q.q.q.q.q.q.q.q.q.q.q.q.q.q.q.q.q.q.q.q.q.q.q.q.",
"q.q.q.q.q.q.q.q.q.q.q.q.q.q.q.q.q.q.d 8.0.A   X 9 #   .   q.  C =.~ 7.7   e Z q.q.q.q.q.q.q.q.q.q.q.q.q.q.q.q.q.q.q.q.q.q.q.q.q.",
"q.q.q.q.q.q.q.q.q.q.q.C ] ..z q.P @.0.8.O.*   X 9 5 . .   q.  K ( S 8.^   * S q.q.q.q.q.q.q.q.q.q.q.q.q.q.q.q.q.q.q.q.q.q.q.q.q.",
"q.q.q.q.q.q.q.q.q.q.  l Q [ 0.0.8.0.o.] ! $   + 9 9     q.q.  _   C 5.8.q.  9 q.q.q.q.q.q.q.q.q.q.q.q.q.q.q.q.q.q.q.q.q.q.q.q.q.",
"q.q.q.q.q.q.q.q.q.q.  q E ` [ 8.0.7._ Q a   q.X 9 9 .   q.q.X =.@ ! 8.8.q.  a o q.q.q.q.q.q.q.q.q.q.q.q.q.q.q.q.q.q.q.q.q.q.q.q.",
"q.q.q.q.q.q.q.q.q.q.  * 9 E Q ' [ 6.R R *   q.X 9 y     q.q.9 ;.e 8.+.q.q.q.4 S q.q.q.q.q.q.q.q.q.q.q.q.q.q.q.q.q.q.q.q.q.q.q.q.",
"q.q.q.q.q.q.q.q.q.q.    & 9 l s a ` 5 5   q.q.X 9 # .   q.  R ^ X.I q.q.q.q.6 s * q.q.q.q.q.q.q.q.q.q.q.q.q.q.q.q.q.q.q.q.q.q.q.",
"q.q.q.q.q.q.q.q.q.q.q.        # V p . .   @ % 0 9 o . q.q.5 U X.a q.q.q.q.q.  i s q.q.q.q.q.q.q.q.q.q.q.q.q.q.q.q.q.q.q.q.q.q.q.",
"q.q.q.q.q.q.q.q.q.q.q.q.q.  . 6           q q 5   .   q.q.l  .@ q.q.q.q.q.q.q.o S e q.q.q.q.q.q.q.q.q.q.q.q.q.q.q.q.q.q.q.q.q.q.",
"q.q.q.q.q.q.q.q.q.q.q.q.q.q.    q.q.q.q.5 9 5   .     q.e e g q.q.q.q.q.q.q.q.o q e q.q.q.q.q.q.q.q.q.q.q.q.q.q.q.q.q.q.q.q.q.q.",
"q.q.q.q.q.q.q.q.q.q.q.q.q.q.q.q.q.q.q.5 9 o .   q.q.q.@ T e o q.q.q.q.q.q.q.  5 6 q.q.q.q.q.q.q.q.q.q.q.q.q.q.q.q.q.q.q.q.q.q.q.",
"q.q.q.q.q.q.q.q.q.q.q.q.q.q.q.q.q.Z 6 3 .   q.q.q.q.q.  i ` q.q.q.q.q.q.q.q.q.q.q.q.q.q.q.q.q.q.q.q.q.q.q.q.q.q.q.q.q.q.q.q.q.q.",
"q.q.q.q.q.q.q.q.q.q.q.q.q.q.q.q.p C *     q.q.q.q.q.q.q.* Y q.q.q.q.q.q.q.q.q.q.q.q.q.q.q.q.q.q.q.q.q.q.q.q.q.q.q.q.q.q.q.q.q.q.",
"q.q.q.q.q.q.q.q.q.q.q.q.q.q.q.q.3 9   q.q.q.q.q.q.q.q.q.X S f q.q.q.q.q.q.q.q.q.q.q.q.q.q.q.q.q.q.q.q.q.q.q.q.q.q.q.q.q.q.q.q.q.",
"q.q.q.q.q.q.q.q.q.q.q.q.q.q.q.  9 . q.q.q.q.q.q.q.q.q.q.q.9 _ q.q.q.q.q.q.q.q.q.q.q.q.q.q.q.q.q.q.q.q.q.q.q.q.q.q.q.q.q.q.q.q.q.",
"q.q.q.q.q.q.q.q.q.q.q.q.q.q.q.  9   q.q.q.q.q.q.q.q.q.q.q.  D z q.q.q.q.q.q.q.q.q.q.q.q.q.q.q.q.q.q.q.q.q.q.q.q.q.q.q.q.q.q.q.q.",
"q.q.q.q.q.q.q.q.q.q.q.q.q.q.q.  q   q.q.q.q.q.q.q.q.q.q.q.q.9 L H   q.q.q.q.q.q.q.q.q.q.q.q.q.q.q.q.q.q.q.q.q.q.q.q.q.q.q.q.q.q.",
"q.q.q.q.q.q.q.q.q.q.q.q.q.q.q.5 9   q.q.q.q.q.q.q.q.q.q.q.q.  a L ( J 7 q.q.q.q.q.q.q.q.q.q.q.q.q.q.q.q.q.q.q.q.q.q.q.q.q.q.q.q.",
"q.q.q.q.q.q.q.q.q.q.q.q.q.q.  5 2 % q.q.q.q.q.q.q.q.q.q.q.q.q.  @ f S ` q.q.q.q.q.q.q.q.q.q.q.q.q.q.q.q.q.q.q.q.q.q.q.q.q.q.q.q.",
"q.q.q.q.q.q.q.q.q.q.q.q.q.q.    9 9 + Z a = q.q.q.q.q.q.q.q.q.q.q..   S q.q.q.q.q.q.q.q.q.q.q.q.q.q.q.q.q.q.q.q.q.q.q.q.q.q.q.q.",
"q.q.q.q.q.q.q.q.q.q.q.q.q.q.q.q.q.q.q.q.q.q.q.q.q.q.q.q.q.q.q.q.q.q.q.q.q.q.q.q.q.q.q.q.q.q.q.q.q.q.q.q.q.q.q.q.q.q.q.q.q.q.q.q.",
"q.q.q.q.q.q.q.q.q.q.q.q.q.q.q.q.q.q.q.q.q.q.q.q.q.q.q.q.q.q.q.q.q.q.q.q.q.q.q.q.q.q.q.q.q.q.q.q.q.q.q.q.q.q.q.q.q.q.q.q.q.q.q.q.",
"q.q.q.q.q.q.q.q.q.q.q.q.q.q.q.q.q.q.q.q.q.q.q.q.q.q.q.q.q.q.q.q.q.q.q.q.q.q.q.q.q.q.q.q.q.q.q.q.q.q.q.q.q.q.q.q.q.q.q.q.q.q.q.q.",
"q.q.q.q.q.q.q.q.q.q.q.q.q.q.q.q.q.q.q.q.q.q.q.q.q.q.q.q.q.q.q.q.q.q.q.q.q.q.q.q.q.q.q.q.q.q.q.q.q.q.q.q.q.q.q.q.q.q.q.q.q.q.q.q.",
"q.q.q.q.q.q.q.q.q.q.q.q.q.q.q.q.q.q.q.q.q.q.q.q.q.q.q.q.q.q.q.q.q.q.q.q.q.q.q.q.q.q.q.q.q.q.q.q.q.q.q.q.q.q.q.q.q.q.q.q.q.q.q.q.",
"q.q.q.q.q.q.q.q.q.q.q.q.q.q.q.q.q.q.q.q.q.q.q.q.q.q.q.q.q.q.q.q.q.q.q.q.q.q.q.q.q.q.q.q.q.q.q.q.q.q.q.q.q.q.q.q.q.q.q.q.q.q.q.q.",
"q.q.q.q.q.q.q.q.q.q.q.q.q.q.q.q.q.q.q.q.q.q.q.q.q.q.q.q.q.q.q.q.q.q.q.q.q.q.q.q.q.q.q.q.q.q.q.q.q.q.q.q.q.q.q.q.q.q.q.q.q.q.q.q.",
"q.q.q.q.q.q.q.q.q.q.q.q.q.q.q.q.q.q.q.q.q.q.q.q.q.q.q.q.q.q.q.q.q.q.q.q.q.q.q.q.q.q.q.q.q.q.q.q.q.q.q.q.q.q.q.q.q.q.q.q.q.q.q.q."
};
