/* XPM */
static char *frame3[] = {
/* columns rows colors chars-per-pixel */
"64 64 180 2 ",
"   c #010001",
".  c #0B0001",
"X  c #130005",
"o  c #1A0204",
"O  c #16020A",
"+  c #190109",
"@  c #1B0710",
"#  c #150913",
"$  c #240612",
"%  c #2A121D",
"&  c #25181F",
"*  c #2F181E",
"=  c #26151D",
"-  c #30191F",
";  c #2D1C24",
":  c #2D1B2B",
">  c #3A1F24",
",  c #272226",
"<  c #33232B",
"1  c #3A2329",
"2  c #382C2E",
"3  c #3A2125",
"4  c #372C32",
"5  c #3F2E38",
"6  c #3A2933",
"7  c #3C3032",
"8  c #3F3239",
"9  c #3F3B3A",
"0  c #432A2D",
"q  c #422C33",
"w  c #422E39",
"e  c #413237",
"r  c #43343C",
"t  c #4D3A3D",
"y  c #56373F",
"u  c #523B3E",
"i  c #453441",
"p  c #463C43",
"a  c #4D3A40",
"s  c #4C3E4B",
"d  c #553C42",
"f  c #593944",
"g  c #533F48",
"h  c #4C4445",
"j  c #4C464D",
"k  c #544242",
"l  c #594045",
"z  c #52434B",
"x  c #544C4D",
"c  c #51504E",
"v  c #4E4351",
"b  c #4F4C52",
"n  c #544754",
"m  c #564C53",
"M  c #594C56",
"N  c #5C4758",
"B  c #554B58",
"V  c #5A4F5A",
"C  c #545353",
"Z  c #5B5353",
"A  c #585954",
"S  c #59575A",
"D  c #575B5E",
"F  c #5D5D5E",
"G  c #69545D",
"H  c #605E5F",
"J  c #5E605F",
"K  c #63645F",
"L  c #545760",
"P  c #5E5566",
"I  c #5D5E62",
"U  c #585769",
"Y  c #5B5F68",
"T  c #625F62",
"R  c #655F6C",
"E  c #6D5962",
"W  c #5F6163",
"Q  c #5D646E",
"!  c #616163",
"~  c #686367",
"^  c #666966",
"/  c #686866",
"(  c #63636B",
")  c #6A646B",
"_  c #656969",
"`  c #696B6D",
"'  c #656371",
"]  c #6D6472",
"[  c #6F6D7A",
"{  c #706B72",
"}  c #716F7A",
"|  c #6E7277",
" . c #6E727A",
".. c #727374",
"X. c #72737B",
"o. c #76767C",
"O. c #777080",
"+. c #7B7781",
"@. c #767B85",
"#. c #7B7B85",
"$. c #797B88",
"%. c #837C8C",
"&. c #7A848D",
"*. c #748090",
"=. c #83828A",
"-. c #898D98",
";. c #908F94",
":. c #8D969D",
">. c #8E97A0",
",. c #8F9CA9",
"<. c #8B9EA5",
"1. c #939BA4",
"2. c #9A9AA5",
"3. c #929CA9",
"4. c #95A0A4",
"5. c #90A3A9",
"6. c #9FA3AF",
"7. c #9DABB3",
"8. c #A1A3AE",
"9. c #A3A6B5",
"0. c #A8A7B5",
"q. c #A4ABB6",
"w. c #ABABB4",
"e. c #A8A7B9",
"r. c #A5ACBB",
"t. c #A9ACBB",
"y. c #A0B0B0",
"u. c #A5B0BB",
"i. c #AAB1BD",
"p. c #B0B4BF",
"a. c #A3AFC1",
"s. c #A6B4C2",
"d. c #ACB3C3",
"f. c #A6BCC7",
"g. c #AABBC7",
"h. c #A9BBCA",
"j. c #B2B6C3",
"k. c #B5B8C7",
"l. c #B8BCC5",
"z. c #B3BAC9",
"x. c #BEBDCB",
"c. c #BBBCD0",
"v. c #A9C2C7",
"b. c #A7C4CA",
"n. c #BBC3CE",
"m. c #BDC1D1",
"M. c #BBCCD6",
"N. c #BED4E2",
"B. c #BEE0EA",
"V. c #C4C7D6",
"C. c #C8C5D8",
"Z. c #C1CAD8",
"A. c #C2CCD6",
"S. c #C0D1DB",
"D. c #CADCE5",
"F. c #C6D9EA",
"G. c #C9DEEB",
"H. c #CBE2EE",
"J. c #C3E4ED",
"K. c #D0E0ED",
"L. c #C6E5F3",
"P. c #CAE5F4",
"I. c #C7E9F3",
"U. c #CBE9F4",
"Y. c #C7E3F8",
"T. c #CBE6F9",
"R. c #CEEBFB",
"E. c #D1E5F2",
"W. c #D2ECF9",
"Q. c #D2EAF4",
"!. c #CEF1FE",
"~. c #D5F2F8",
"^. c #D5FCFF",
"/. c #DDFEFE",
"(. c #E2F4FF",
"). c #E4FFFE",
"_. c #EAFEFE",
"`. c #F3FFFF",
"'. c #FDFFFE",
"]. c #0x58e87c",
/* pixels */
"].].].].].].].].].].].].].].].].].].].].].].].].].].].].].].].].].].].].].].].].].].].].].].].].].].].].].].].].].].].].].].].].",
"].].].].].].].].].].].].].].].].].].].].].].].].].].].].].].].].].].].].].].].].].].].].].].].].].].].].].].].].].].].].].].].].",
"].].].].].].].].].].].].].].].].].].].].].].].].].].].].].].].].].].].].].].].].].].].].].].].].].].].].].].].].].].].].].].].].",
"].].].].].].].].].].].].].].].].].].].].].].].].].].].].].].].].].].].].].].].].].].].].].].].].].].].].].].].].].].].].].].].].",
"].].].].].].].].].].].].].].].].].].].].].].].].].].].].].].].].].].].].].].].].].].].].].].].].].].].].].].].].].].].].].].].].",
"].].].].].].].].].].].].].].].].].].].].].].].].].].].].].].].].].].].].].].].].].].].].].].].].].].].].].].].].].].].].].].].].",
"].].].].].].].].].].].].].].].].].].].].].].].].].].].].].].].].].].].].].].].].].].].].].].].].].].].].].].].].].].].].].].].].",
"].].].].].].].].].].].].].].].].].].].].].].].].].].].].].].].].].].].].].].].].].].].].].].].].].].].].].].].].].].].].].].].].",
"].].].].].].].].].].].].].].].].].].].].].].].].].].].].].].].].].].].].].].].].].].].].].].].].].].].].].].].].].].].].].].].].",
"].].].].].].].].].].].].].].].].].].].].].].].].].].].].].].].].].].].].].].].].].].].].].].].].].].].].].].].].].].].].].].].].",
"].].].].].].].].].].].].].].].].].].].].].].].].].].].].].].].].].].].].].].].].].].].].].].].].].].].].].].].].].].].].].].].].",
"].].].].].].].].].].].].].].].].].].].].].].].].].].].].].].].].].].].].].].].].].].].].].].].].].].].].].].].].].].].].].].].].",
"].].].].].].].].].].].].].].].].].].].].].].].].].].].].].].].].].].].].].].].].].].].].].].].].].].].].].].].].].].].].].].].].",
"].].].].].].].].].].].].].].].].].].].].].].].].].].].].].].].].].].].].].].].].].].].].].].].].].].].].].].].].].].].].].].].].",
"].].].].].].].].].].].].].].].].].].].].].].].].].].].].].].].].].].].].].].].].].].].].].].].].].].].].].].].].].].].].].].].].",
"].].].].].].].].].].].].].].].].].].].].].].].].].].].].].].].].].].].].].].].].].].].].].].].].].].].].].].].].].].].].].].].].",
"].].].].].].].].].].].].].].].].].].].].].].].].].].].].].].].].].].].].].].].].].].].].].].].].].].].].].].].].].].].].].].].].",
"].].].].].].].].].].].].].].].].].].].].].].].].].].].].].].].].].].].].].].].].].].].].].].].].].].].].].].].].].].].].].].].].",
"].].].].].].].].].].].].].].].].].].].].].].].].].].].].].].].].].].].].].].].].].].].].].].].].].].].].].].].].].].].].].].].].",
"].].].].].].].].].].].].].].].].].].].].].].].].].].].].].].].].].].].].].].].].].].].].].].].].].].].].].].].].].].].].].].].].",
"].].].].].].].].].].].].].].].].].].].].].].].].].].].].].].].].].].].].].].].].].].].].].].].].].].].].].].].].].].].].].].].].",
"].].].].].].].].].].].].].].].].].].].].].].].].].].].].].].].].].].].].].].].].].].].].].].].].].].].].].].].].].].].].].].].].",
"].].].].].].].].].].].].].].].].].].].].].].].].].].].].].].].].].].].].].].].].].].].].].].].].].].].].].].].].].].].].].].].].",
"].].].].].].].].].].].].].].].].].].].].].].].].].].].].].].].].].].].].].].].].].].].].].].].].].].].].].].].].].].].].].].].].",
"].].].].].].].].].].].].].].].].].].].].].].].].].].].].].].].].].].].].].].].].].].].].].].].].].].].].].].].].].].].].].].].].",
"].].].].].].].].].].].].].].].].].].].].].].].].].].].].].].].].].].].].].].].].].].].].].].].].].].].].].].].].].].].].].].].].",
"].].].].].].].].].].].].].].].].].].].].].].].].].].].].].].].].].].].].].].].].].].].].].].].].].].].].].].].].].].].].].].].].",
"].].].].].].].].].].].].].].].].].].].].].].].].].].].].].].].].].].].].].].].].].].].].].].].].].].].].].].].].].].].].].].].].",
"].].].].].].].].].].].].].].].].].].].].].].].].].].].].].].].].].].].].].].].].].].].].].].].].].].].].].].].].].].].].].].].].",
"].].].].].].].].].].].].].].].].].].].].].].].].].].].].].].].].].].].].].].].].].].].].].].].].].].].].].].].].].].].].].].].].",
"].].].].].].].].].].].].].].].].].].].].].].].].].].].].].].].].].].].].].].].].].].].].].].].].].].].].].].].].].].].].].].].].",
"].].].].].].].].].].].].].].].].].].].].].].].].].].].].].].].].].].].].].].].].].].].].].].].].].].].].].].].].].].].].].].].].",
"].].].].].].].].].].].].].].].].].e r e e e 8 r i e 9 r e e e 8 e e 8 w r 8 i r r r r r r t r ].].].].].].].].].].].].].].].].].",
"].].].].].].].].].].].].].].].].].. . . . . . X . . O . . . . . . . . . X X X X X X X X . X X ].].].].].].].].].].].].].].].].].",
"].].].].].].].].].].].].].].].].].h.h.h.h.h.h.d.v.S.j h.h.h.h.g.g.h.f.f.f.h c c m m C c c C C v ].].].].].].].].].].].].].].].].",
"].].].].].].].].].].].].].].].].G /./.)././.)././.'.V /.)././.)./.).)././.F ^ ^ _ / ^ ^ / ` ^ : ].].].].].].].].].].].].].].].].",
"].].].].].].].].].].].].].].X.# ) g.j.d.d.j.z.M.( ; } d.d.g.d.h.g.g.d.z.d.F J W ! H ! J H I T x ; b ].].].].].].].].].].].].].].",
"].].].].].].].].].].].]. .O I q.2.t.9.d.Z.G { w.6.t.e.e.e.q.e.w.e.t.r...^ K C I 4.9.6.q.1.D S F D C ; v ].].].].].].].].].].].].",
"].].].].].].].].].].].].!   _ K.s.r.t.e.x.n $.D.s.t.u.u.t.u.y.u.t.a.i._ c K F Q i.z.d.z.q.W I T ..Z . 6 ].].].].].].].].].].].].",
"].].].].].].].].].].].].)   o.).P.L.).X.  -.G.H.H.G.L.L.H.H.P.H.P.R.E...C ! 2.q.r.r.q.u.9.q.2.! / C X i ].].].].].].].].].].].].",
"].].].].].].].].].].].].)   @._.U.I._.)   <.W.P.U.U.Q.Q.U.U.R.U.U.R.Q.| A T t.k.e.r.r.t.e.k.q.H _ C O 8 ].].].].].].].].].].].].",
"].].].].].].].].].].].].)   ( M.u.t.C.N   @.d.t.t.t.u.t.t.t.t.t.t.d.i.` S T 9.d.r.q.r.t.t.i.8.! _ C O i ].].].].].].].].].].].].",
"].].].].].].].].].].].].)   ( M.q.9.c.P   X.7.r.q.q.r.t.u.q.q.w.q.u.t.` A Y 9.d.q.r.r.r.t.j.6.K / C O e ].].].].].].].].].].].].",
"].].].].].].].].].].].].)   o.).H.H.Q.F.(.I 3.`.P.G.L.G.H.H.L.H.L.R.K.X.A T 9.d.q.r.r.t.t.i.6.! ^ C O r ].].].].].].].].].].].].",
"].].].].].].].].].].].].)   #.).R.T.U.W.`.| :./.L.W.U.R.W.U.U.U.U.!.Q. .C ! 9.d.q.r.r.t.t.d.8.J / C O r ].].].].].].].].].].].].",
"].].].].].].].].].].].]._   #._.U.P.P.T.L.N.D   q._.W.I.L.P.P.I.P.R.U.X.C ! 9.a.q.r.r.t.t.p.6.! / m O r ].].].].].].].].].].].].",
"].].].].].].].].].].].].)   $._.P.L.L.P.L.R.Q   2.E.D.P.P.U.P.I.P.R.P...C ( 9.d.q.r.r.t.r.p.8.F ^ C O e ].].].].].].].].].].].].",
"].].].].].].].].].].].].~   @._.P.P.I.~./.^.U   O X o U.L.U.L.I.L.R.U. .A W 9.d.q.r.r.r.t.p.6.! ^ C O r ].].].].].].].].].].].].",
"].].].].].].].].].].].].)   @._.P.L.R.F.h.b.( = 5 2 7 P.U.P.P.U.P.R.U.| C Y 9.d.q.r.q.t.t.p.6.H / C O e ].].].].].].].].].].].].",
"].].].].].].].].].].].].~   @._.P.T.).'   o >.`.R.R.R.U.L.P.U.U.P.R.I.| C R 9.d.q.r.t.t.t.p.6.K / m O r ].].].].].].].].].].].].",
"].].].].].].].].].].].].~   @._.P.L.).'   1 7.).R.R.R.L.P.U.P.I.L.R.U.| Z ! 9.d.q.u.r.e.t.d.6.I ^ m O r ].].].].].].].].].].].].",
"].].].].].].].].].].].].~   @._.T.P.).]   8././././.W.R.U.H.U.I.P.R.P.| C ^ 9.a.q.t.r.t.t.p.6.K ^ C O r ].].].].].].].].].].].].",
"].].].].].].].].].].].].~   @._.T.T.).]   *.h.s.g.s.N.P.U.P.P.U.P.R.P. .A W 9.d.q.r.r.t.t.j.8.I / C O r ].].].].].].].].].].].].",
"].].].].].].].].].].].].~   @._.Y.R.).' . @ O o O   q.U.P.L.P.I.P.R.L. .A ! 9.d.q.r.r.r.t.p.6.K / C O r ].].].].].].].].].].].].",
"].].].].].].].].].].].].~   #.).L.R.).[ X ; - - * $ :.T.U.U.P.L.P.R.U...Z ! 9.d.r.r.r.r.e.i.6.J ^ C + r ].].].].].].].].].].].].",
"].].].].].].].].].].].].)   #._.P.L./.%.1 d u h k f c P.L.P.P.U.L.W.L. .C Q 9.s.q.r.r.r.t.p.8.! / C O r ].].].].].].].].].].].].",
"].].].].].].].].].].].].~   @._.P.L./.=.> d d t y y Z T.P.P.P.P.L.R.T. .C ! 9.d.r.r.r.r.t.p.6.H ^ C O r ].].].].].].].].].].].].",
"].].].].].].].].].].].].)   @.`.Y.L.).=.3 d u d u t M Y.T.T.T.U.T.T.E.X.C W 9.d.r.q.r.r.t.p.9.H ^ C O i ].].].].].].].].].].].].",
"].].].].].].].].].].].].E   @.'.)./.'.;.0 f l k g d G ).).).).)./.)._.&.F | l.Z.m.n.m.m.m.V.k./ ..Z   < ].].].].].].].].].].].].",
"].].].].].].].].].].].].%.4 } 7.,.,.7.T < q e q q q d 1.3.3.,.3.3.5.1.D t z o.+.+.+.+.o.+.#.o.h h h p R ].].].].].].].].].].].].",
"].].].].].].].].].].].].].].I .         . . . X X . X                 . .                     .   , ].].].].].].].].].].].].].].",
"].].].].].].].].].].].].].].#.p m M m m B B m m M M m M m M m m m M m V m C m B m m M m m m M M s R ].].].].].].].].].].].].].].",
"].].].].].].].].].].].].].].].].].].].].].].].].].].].].].].].].].].].].].].].].].].].].].].].].].].].].].].].].].].].].].].].].",
"].].].].].].].].].].].].].].].].].].].].].].].].].].].].].].].].].].].].].].].].].].].].].].].].].].].].].].].].].].].].].].].]."
};
