/* XPM */
static char *frame1[] = {
/* columns rows colors chars-per-pixel */
"64 64 154 2 ",
"   c #010001",
".  c #0A0001",
"X  c #120103",
"o  c #1A0107",
"O  c #14040D",
"+  c #1B040C",
"@  c #1E090E",
"#  c #1B0B15",
"$  c #1F151D",
"%  c #1F181F",
"&  c #200B12",
"*  c #281415",
"=  c #2E201F",
"-  c #2A1621",
";  c #211C22",
":  c #2A1B21",
">  c #262628",
",  c #2E222C",
"<  c #312323",
"1  c #31252C",
"2  c #352B2D",
"3  c #332C33",
"4  c #332B3A",
"5  c #392E3C",
"6  c #333230",
"7  c #34323F",
"8  c #3B333B",
"9  c #3F3939",
"0  c #4E373D",
"q  c #4E3B3F",
"w  c #50363B",
"e  c #523C3E",
"r  c #3F3943",
"t  c #423642",
"y  c #443C41",
"u  c #4B3D44",
"i  c #423F4A",
"p  c #523C43",
"a  c #444145",
"s  c #4B4143",
"d  c #46434A",
"f  c #4E464E",
"g  c #554144",
"h  c #5B4047",
"j  c #5C424B",
"k  c #514C48",
"l  c #5B4B4C",
"z  c #564B54",
"x  c #5A4B55",
"c  c #554C59",
"v  c #5E4958",
"b  c #565355",
"n  c #5C5254",
"m  c #565855",
"M  c #565559",
"N  c #5A5359",
"B  c #5E5D5F",
"V  c #625D5E",
"C  c #5E605F",
"Z  c #61615E",
"A  c #5E5F61",
"S  c #625E61",
"D  c #645969",
"F  c #5F6161",
"G  c #616161",
"H  c #686365",
"J  c #66656A",
"K  c #666A6D",
"L  c #6A6B6B",
"P  c #6C6773",
"I  c #676F72",
"U  c #6C6E72",
"Y  c #6C6F78",
"T  c #6C7272",
"R  c #687179",
"E  c #6F7B7B",
"W  c #737171",
"Q  c #77747F",
"!  c #787178",
"~  c #7D7E7B",
"^  c #787681",
"/  c #7E7A83",
"(  c #7A7D8E",
")  c #748285",
"_  c #82838C",
"`  c #8B858F",
"'  c #858192",
"]  c #888191",
"[  c #878A95",
"{  c #8D8E95",
"}  c #838C9D",
"|  c #8C9195",
" . c #8E919C",
".. c #8F989F",
"X. c #9692A0",
"o. c #959AA6",
"O. c #989AA7",
"+. c #969EAB",
"@. c #9AA1AB",
"#. c #9FA4B4",
"$. c #9EACB5",
"%. c #A1A3B6",
"&. c #A1AAB6",
"*. c #A3A6B9",
"=. c #A5ACBB",
"-. c #A9ACBC",
";. c #A7B1BD",
":. c #ABB3BE",
">. c #A6ADC0",
",. c #A3B3C3",
"<. c #AFB2C1",
"1. c #A4B9C3",
"2. c #B3B6C5",
"3. c #B9B5C3",
"4. c #B3BBC6",
"5. c #B5BDC9",
"6. c #B9BECC",
"7. c #B7BED0",
"8. c #AFC3CA",
"9. c #BBC3CE",
"0. c #B6C6D5",
"q. c #BBC3D1",
"w. c #B4CCD6",
"e. c #BCCAD7",
"r. c #B9D4DB",
"t. c #C0C7D7",
"y. c #C5C9D5",
"u. c #C1CBDB",
"i. c #D4D3E3",
"p. c #D4DBEB",
"a. c #DADCEB",
"s. c #C6E5EE",
"d. c #CAE6EF",
"f. c #C6E5F1",
"g. c #CBE5F4",
"h. c #C5EBF4",
"j. c #CCECF5",
"k. c #CBE5F9",
"l. c #CDEDFC",
"z. c #D1E2F4",
"x. c #D1ECF7",
"c. c #D1EDFD",
"v. c #CCF1FC",
"b. c #D7F3F7",
"n. c #D4F1FD",
"m. c #DBF7FB",
"M. c #D7FFFF",
"N. c #DDFCFF",
"B. c #E5EDFA",
"V. c #E6F5FA",
"C. c #E4FFFF",
"Z. c #ECFFFF",
"A. c #F3FFFE",
"S. c #0x58e87c",
/* pixels */
"S.S.S.S.S.S.S.S.S.S.S.S.S.S.S.S.S.S.S.S.S.S.S.S.S.S.S.S.S.S.S.S.S.S.S.S.S.S.S.S.S.S.S.S.S.S.S.S.S.S.S.S.S.S.S.S.S.S.S.S.S.S.S.S.",
"S.S.S.S.S.S.S.S.S.S.S.S.S.S.S.S.S.S.S.S.S.S.S.S.S.S.S.S.S.S.S.S.S.S.S.S.S.S.S.S.S.S.S.S.S.S.S.S.S.S.S.S.S.S.S.S.S.S.S.S.S.S.S.S.",
"S.S.S.S.S.S.S.S.S.S.S.S.S.S.S.S.S.S.S.S.S.S.S.S.S.S.S.S.S.S.S.S.S.S.S.S.S.S.S.S.S.S.S.S.S.S.S.S.S.S.S.S.S.S.S.S.S.S.S.S.S.S.S.S.",
"S.S.S.S.S.S.S.S.S.S.S.S.S.S.S.S.S.S.S.S.S.S.S.S.S.S.S.S.S.S.S.S.S.S.S.S.S.S.S.S.S.S.S.S.S.S.S.S.S.S.S.S.S.S.S.S.S.S.S.S.S.S.S.S.",
"S.S.S.S.S.S.S.S.S.S.S.S.S.S.S.S.S.S.S.S.S.S.S.S.S.S.S.S.S.S.S.S.S.S.S.S.S.S.S.S.S.S.S.S.S.S.S.S.S.S.S.S.S.S.S.S.S.S.S.S.S.S.S.S.",
"S.S.S.S.S.S.S.S.S.S.S.S.S.S.S.S.S.S.S.S.S.S.S.S.S.S.S.S.S.S.S.S.S.S.S.S.S.S.S.S.S.S.S.S.S.S.S.S.S.S.S.S.S.S.S.S.S.S.S.S.S.S.S.S.",
"S.S.S.S.S.S.S.S.S.S.S.S.S.S.S.S.S.S.S.S.S.S.S.S.S.S.S.S.S.S.S.S.S.S.S.S.S.S.S.S.S.S.S.S.S.S.S.S.S.S.S.S.S.S.S.S.S.S.S.S.S.S.S.S.",
"S.S.S.S.S.S.S.S.S.S.S.S.S.S.S.S.S.S.S.S.S.S.S.S.S.S.S.S.S.S.S.S.S.S.S.S.S.S.S.S.S.S.S.S.S.S.S.S.S.S.S.S.S.S.S.S.S.S.S.S.S.S.S.S.",
"S.S.S.S.S.S.S.S.S.S.S.S.S.S.S.S.S.S.S.S.S.S.S.S.S.S.S.S.S.S.S.S.S.S.S.S.S.S.S.S.S.S.S.S.S.S.S.S.S.S.S.S.S.S.S.S.S.S.S.S.S.S.S.S.",
"S.S.S.S.S.S.S.S.S.S.S.S.S.S.S.S.S.S.S.S.S.S.S.S.S.S.S.S.S.S.S.S.S.S.S.S.S.S.S.S.S.S.S.S.S.S.S.S.S.S.S.S.S.S.S.S.S.S.S.S.S.S.S.S.",
"S.S.S.S.S.S.S.S.S.S.S.S.S.S.S.S.S.S.S.S.S.S.S.S.S.S.S.S.S.S.S.S.S.S.S.S.S.S.S.S.S.S.S.S.S.S.S.S.S.S.S.S.S.S.S.S.S.S.S.S.S.S.S.S.",
"S.S.S.S.S.S.S.S.S.S.S.S.S.S.S.S.S.S.S.S.S.S.S.S.S.S.S.S.S.S.S.S.S.S.S.S.S.S.S.S.S.S.S.S.S.S.S.S.S.S.S.S.S.S.S.S.S.S.S.S.S.S.S.S.",
"S.S.S.S.S.S.S.S.S.S.S.S.S.S.S.S.S.S.S.S.S.S.S.S.S.S.S.S.S.S.S.S.S.S.S.S.S.S.S.S.S.S.S.S.S.S.S.S.S.S.S.S.S.S.S.S.S.S.S.S.S.S.S.S.",
"S.S.S.S.S.S.S.S.S.S.S.S.S.S.S.S.S.S.S.S.S.S.S.S.S.S.S.S.S.S.S.S.S.S.S.S.S.S.S.S.S.S.S.S.S.S.S.S.S.S.S.S.S.S.S.S.S.S.S.S.S.S.S.S.",
"S.S.S.S.S.S.S.S.S.S.S.S.S.S.S.S.S.S.S.S.S.S.S.S.S.S.S.S.S.S.S.S.S.S.S.S.S.S.S.S.S.S.S.S.S.S.S.S.S.S.S.S.S.S.S.S.S.S.S.S.S.S.S.S.",
"S.S.S.S.S.S.S.S.S.S.S.S.S.S.S.S.S.S.S.S.S.S.S.S.S.S.S.S.S.S.S.S.S.S.S.S.S.S.S.S.S.S.S.S.S.S.S.S.S.S.S.S.S.S.S.S.S.S.S.S.S.S.S.S.",
"S.S.S.S.S.S.S.S.S.S.S.S.S.S.S.S.S.S.S.S.S.S.S.S.S.S.S.S.S.S.S.S.S.S.S.S.S.S.S.S.S.S.S.S.S.S.S.S.S.S.S.S.S.S.S.S.S.S.S.S.S.S.S.S.",
"S.S.S.S.S.S.S.S.S.S.S.S.S.S.S.S.S.S.S.S.S.S.S.S.S.S.S.S.S.S.S.S.S.S.S.S.S.S.S.S.S.S.S.S.S.S.S.S.S.S.S.S.S.S.S.S.S.S.S.S.S.S.S.S.",
"S.S.S.S.S.S.S.S.S.S.S.S.S.S.S.S.S.S.S.S.S.S.S.S.S.S.S.S.S.S.S.S.S.S.S.S.S.S.S.S.S.S.S.S.S.S.S.S.S.S.S.S.S.S.S.S.S.S.S.S.S.S.S.S.",
"S.S.S.S.S.S.S.S.S.S.S.S.S.S.S.S.S.S.S.S.S.S.S.S.S.S.S.S.S.S.S.S.S.S.S.S.S.S.S.S.S.S.S.S.S.S.S.S.S.S.S.S.S.S.S.S.S.S.S.S.S.S.S.S.",
"S.S.S.S.S.S.S.S.S.S.S.S.S.S.S.S.S.S.S.S.S.S.S.S.S.S.S.S.S.S.S.S.S.S.S.S.S.S.S.S.S.S.S.S.S.S.S.S.S.S.S.S.S.S.S.S.S.S.S.S.S.S.S.S.",
"S.S.S.S.S.S.S.S.S.S.S.S.S.S.S.S.S.S.S.S.S.S.S.S.S.S.S.S.S.S.S.S.S.S.S.S.S.S.S.S.S.S.S.S.S.S.S.S.S.S.S.S.S.S.S.S.S.S.S.S.S.S.S.S.",
"S.S.S.S.S.S.S.S.S.S.S.S.S.S.S.S.S.S.S.S.S.S.S.S.S.S.S.S.S.S.S.S.S.S.S.S.S.S.S.S.S.S.S.S.S.S.S.S.S.S.S.S.S.S.S.S.S.S.S.S.S.S.S.S.",
"S.S.S.S.S.S.S.S.S.S.S.S.S.S.S.S.S.S.S.S.S.S.S.S.S.S.S.S.S.S.S.S.S.S.S.S.S.S.S.S.S.S.S.S.S.S.S.S.S.S.S.S.S.S.S.S.S.S.S.S.S.S.S.S.",
"S.S.S.S.S.S.S.S.S.S.S.S.S.S.S.S.S.S.S.S.S.S.S.S.S.S.S.S.S.S.S.S.S.S.S.S.S.S.S.S.S.S.S.S.S.S.S.S.S.S.S.S.S.S.S.S.S.S.S.S.S.S.S.S.",
"S.S.S.S.S.S.S.S.S.S.S.S.S.S.S.S.S.S.S.S.S.S.S.S.S.S.S.S.S.S.S.S.S.S.S.S.S.S.S.S.S.S.S.S.S.S.S.S.S.S.S.S.S.S.S.S.S.S.S.S.S.S.S.S.",
"S.S.S.S.S.S.S.S.S.S.S.S.S.S.S.S.S.S.S.S.S.S.S.S.S.S.S.S.S.S.S.S.S.S.S.S.S.S.S.S.S.S.S.S.S.S.S.S.S.S.S.S.S.S.S.S.S.S.S.S.S.S.S.S.",
"S.S.S.S.S.S.S.S.S.S.S.S.S.S.S.S.S.S.S.S.S.S.S.S.S.S.S.S.S.S.S.S.S.S.S.S.S.S.S.S.S.S.S.S.S.S.S.S.S.S.S.S.S.S.S.S.S.S.S.S.S.S.S.S.",
"S.S.S.S.S.S.S.S.S.S.S.S.S.S.S.S.S.S.S.S.S.S.S.S.S.S.S.S.S.S.S.S.S.S.S.S.S.S.S.S.S.S.S.S.S.S.S.S.S.S.S.S.S.S.S.S.S.S.S.S.S.S.S.S.",
"S.S.S.S.S.S.S.S.S.S.S.S.S.S.S.S.S.S.S.S.S.S.S.S.S.S.S.S.S.S.S.S.S.S.S.S.S.S.S.S.S.S.S.S.S.S.S.S.S.S.S.S.S.S.S.S.S.S.S.S.S.S.S.S.",
"S.S.S.S.S.S.S.S.S.S.S.S.S.S.S.S.S.S.S.S.S.S.S.S.S.S.S.S.S.S.S.S.S.S.S.S.S.S.S.S.S.S.S.S.S.S.S.S.S.S.S.S.S.S.S.S.S.S.S.S.S.S.S.S.",
"S.S.S.S.S.S.S.S.S.S.S.S.S.S.S.S.S.S.S.S.S.S.S.S.S.S.S.S.S.S.S.S.S.S.S.S.S.S.S.S.S.S.S.S.S.S.S.S.S.S.S.S.S.S.S.S.S.S.S.S.S.S.S.S.",
"S.S.S.S.S.S.S.S.S.S.S.S.S.S.S.S.S.S.S.S.S.S.S.S.S.S.S.S.S.S.S.S.S.S.S.S.S.S.S.S.S.S.S.S.S.S.S.S.S.S.S.S.S.S.S.S.S.S.S.S.S.S.S.S.",
"S.S.S.S.S.S.S.S.S.S.S.S.S.S.S.S.S.S.S.S.S.S.S.S.S.S.S.S.S.S.S.S.S.S.S.S.S.S.S.S.S.S.S.S.S.S.S.S.S.S.S.S.S.S.S.S.S.S.S.S.S.S.S.S.",
"S.S.S.S.S.S.S.S.S.S.S.S.S.S.S.S.S.S.S.S.S.S.S.S.S.S.S.S.S.S.S.S.S.S.S.S.S.S.S.S.S.S.S.S.S.S.S.S.S.S.S.S.S.S.S.S.S.S.S.S.S.S.S.S.",
"S.S.S.S.S.S.S.S.S.S.S.S.S.S.S.S.S.S.S.S.S.S.S.S.S.S.S.S.S.S.S.S.S.S.S.S.S.S.S.S.S.S.S.S.S.S.S.S.S.S.S.S.S.S.S.S.S.S.S.S.S.S.S.S.",
"S.S.S.S.S.S.S.S.S.S.S.S.S.S.S.S.S.S.S.S.S.S.S.S.S.S.S.S.S.S.S.S.S.S.S.S.S.S.S.S.S.S.S.S.S.S.S.S.S.S.S.S.S.S.S.S.S.S.S.S.S.S.S.S.",
"S.S.S.S.S.S.S.S.S.S.S.S.S.S.S.S.S.S.S.S.S.S.S.S.S.S.S.S.S.S.S.S.S.S.S.S.S.S.S.S.S.S.S.S.S.S.S.S.S.S.S.S.S.S.S.S.S.S.S.S.S.S.S.S.",
"S.S.S.S.S.S.S.S.S.S.S.S.S.S.S.S.S.S.S.S.S.S.S.S.S.S.S.S.S.S.S.S.S.S.S.S.S.S.S.S.S.S.S.S.S.S.S.S.S.S.S.S.S.S.S.S.S.S.S.S.S.S.S.S.",
"S.S.S.S.S.S.S.S.S.S.S.S.S.S.S.S.S.S.S.S.S.S.S.S.S.S.S.S.S.S.S.S.S.S.S.S.S.S.S.S.S.S.S.S.S.S.S.S.S.S.S.S.S.S.S.S.S.S.S.S.S.S.S.S.",
"S.S.S.S.S.S.S.S.S.S.S.S.S.S.S.S.S.S.S.S.S.S.S.S.S.S.S.S.S.S.S.S.S.S.S.S.S.S.S.S.S.S.S.S.S.S.S.S.S.S.S.S.S.S.S.S.S.S.S.S.S.S.S.S.",
"S.S.S.S.S.S.S.S.S.S.S.S.S.S.S.S.S.S.S.S.S.S.S.S.S.S.S.S.S.S.S.S.S.S.S.S.S.S.S.S.S.S.S.S.S.S.S.S.S.S.S.S.S.S.S.S.S.S.S.S.S.S.S.S.",
"S.S.S.S.S.S.S.S.S.S.S.S.S.S.S.S.S.S.S.S.S.S.S.S.S.S.S.S.S.S.S.S.S.S.S.S.S.S.S.S.S.S.S.S.S.S.S.S.S.S.S.S.S.S.S.S.S.S.S.S.S.S.S.S.",
"S.S.S.S.S.S.S.S.S.S.S.S.S.S.S.S.S.S.S.S.S.S.S.S.S.S.S.S.S.S.S.S.S.S.S.S.S.S.S.S.S.S.S.S.S.S.S.S.S.S.S.S.S.S.S.S.S.S.S.S.S.S.S.S.",
"S.S.S.S.S.S.S.S.S.S.S.S.S.S.S.S.S.S.S.S.S.S.S.S.S.S.S.S.S.S.S.S.S.S.S.S.S.S.S.S.S.S.S.S.S.S.S.S.S.S.S.S.S.S.S.S.S.S.S.S.S.S.S.S.",
"S.S.S.S.S.S.S.S.S.S.S.S.S.S.S.S.S.S.S.S.S.S.S.S.S.S.S.S.S.S.S.S.S.S.S.S.S.S.S.S.S.S.S.S.S.S.S.S.S.S.S.S.S.S.S.S.S.S.S.S.S.S.S.S.",
"S.o.O.S.S.S.S.S.S.S.S.S.S.S.S.S.S.S.S.S.S.S.S.S.S.S.S.S.S.S.S.S.S.S.S.S.S.S.S.S.S.S.S.S.S.o.S.S.S.S.S.S.S.S.S.S.S.S.S.S.S.o.O.S.",
"M X   ( S.S.S.S.S.S.S.S.S.S.S.S.. @ : S.S.S.S.S.S.S.S.S.% & , S.S.S.S.S.S.S.S.S.S.S.S.S.!   D S.S.S.S.S.S.S.S.S.S.S.S.S.u   # _ ",
"c   i.y   S.S.S.S.S.S.S.S.S.*   C.1 + S.S.S.S.S.S.S.S.S.X 5 9.  1 S.S.S.S.S.S.S.S.S.S.S.6 ~ t   S.S.S.S.S.S.S.S.S.S.S.  ^ i.  _ ",
"M   p.A . S.S.S.S.S.S.S.S.S.p : N.2 + S.S.S.S.S.S.S.S.S.X 7 r.* y S.S.S.S.S.S.S.S.S.S.P 0 ~ a   S.+.S.S.S.S.S.S.S.S.S.O ' i.  _ ",
"N   7.=.t.  ] S.S.S.S.S.*   8.C.d.1 + S.S.S.S.S.S.S.S.S.. 7 l.C.,.  S.S.S.S.S.S.S.S.  2 C C F T   H S.S.S.S.S.S.S.v   y.,.8.  _ ",
"N   q.=.%.A.a   ] S.S.< 8.Z.j.k.f.1 + S.S.S.S.S.S.S.S.S.X 4 c.s.g.A.S.S.S.S.S.S.S.< L C B F V C W 8   P S.S.S.c   s K 4.-.5.  ' ",
"N   q.-.#.Z.Y % / } X.l w.N.j.g.g.2 o S.S.S.S.S.S.S.S.S.X 8 c.g.g.C.S.S.S.S.S.S.S.s L C G G G B W u . V [ [  .z O k J 2.-.5.  _ ",
"N   q.>.#.c.n.C.i .   1.c.f.k.g.g.:   O O O + + + o X X   > c.k.g.x.u._   . .   y o.m Z C Z V V G G W 6 + X X p W G b 2.,.5.  _ ",
"N   9.-.#.c.f.h.b.N.m.x.j.g.f.g.k.C.B.v p p p p j V E N.N.b.k.g.g.l.$.-.3.3.:.2.:.{ m B B G G C G G V H S J L S G Z M 4.-.4.  _ ",
"N   q.=.*.c.k.g.g.h.h.g.g.k.g.g.f.n.x.v p p p 0 p n I c.h.j.k.d.d.j.&.=.:.=.:.:.;.| m G C Z G B G G V G B G Z V F Z M 2.>.6.  _ ",
"N   q.>.%.l.k.g.g.g.g.g.k.j.g.g.d.l.k.x e w p 0 p b R c.g.g.g.g.d.j.=.=.&.=.-.&.=.| m Z Z Z C G C V G C G F F G F Z M 4.-.4.  _ ",
"N   q.>.*.c.j.g.g.k.g.g.d.g.d.g.f.l.k.z p p p w e b R l.g.g.k.g.g.j.&.=.-.-.=.=.-.| m B F Z F F C G F F G G F G F Z M 2.>.4.  _ ",
"N   q.*.%.n.g.k.k.g.g.g.g.k.k.k.d.c.z.z e p p e e n U x.k.k.k.g.g.x.&.&.=.-.=.=.=. .m Z B F F B C F C F B C Z Z A G M 4.=.6.  ` ",
"b   a.7.0.C.C.C.C.C.C.C.C.C.C.C.C.Z.V.V p p h g j V ) Z.C.C.C.C.C.Z.e.9.9.9.9.9.9.@.G L L L L L L K L L L L L L K K G u.6.i.  _ ",
"f                                       . . X . X X                                 . . .   .   . .   . . . .   . . .         / ",
"^ d f N b z z z z z z z z z z z z z z c c c z z z z b z z z z z z z z c x z z z z z c x c z x x z z c x x c z z c c z z c z f  .",
"S.S.S.S.S.S.S.S.S.S.S.S.S.S.S.S.S.S.S.S.S.S.S.S.S.S.S.S.S.S.S.S.S.S.S.S.S.S.S.S.S.S.S.S.S.S.S.S.S.S.S.S.S.S.S.S.S.S.S.S.S.S.S.S.",
"S.S.S.S.S.S.S.S.S.S.S.S.S.S.S.S.S.S.S.S.S.S.S.S.S.S.S.S.S.S.S.S.S.S.S.S.S.S.S.S.S.S.S.S.S.S.S.S.S.S.S.S.S.S.S.S.S.S.S.S.S.S.S.S."
};
