/* XPM */
static char *frame2[] = {
/* columns rows colors chars-per-pixel */
"64 64 189 2 ",
"   c #020001",
".  c #0B0002",
"X  c #07010F",
"o  c #0B030A",
"O  c #110003",
"+  c #180000",
"@  c #14030D",
"#  c #1A050D",
"$  c #160B0C",
"%  c #1C0A13",
"&  c #1C0F18",
"*  c #140C16",
"=  c #1D151B",
"-  c #200609",
";  c #210D16",
":  c #21121B",
">  c #2D1A1B",
",  c #2F1516",
"<  c #31181E",
"1  c #1A1921",
"2  c #241C26",
"3  c #291A24",
"4  c #2A1E2A",
"5  c #211521",
"6  c #2F2027",
"7  c #32232C",
"8  c #38282B",
"9  c #2E2E30",
"0  c #2D2B39",
"q  c #3A2C34",
"w  c #312D3C",
"e  c #3B3638",
"r  c #422C2F",
"t  c #422C33",
"y  c #442E3A",
"u  c #42303B",
"i  c #4C353B",
"p  c #4A393F",
"a  c #403A3C",
"s  c #523C3E",
"d  c #583B3D",
"f  c #483F44",
"g  c #473D48",
"h  c #473A45",
"j  c #523B42",
"k  c #563F49",
"l  c #464245",
"z  c #4C4447",
"x  c #4B444C",
"c  c #54464D",
"v  c #524B4C",
"b  c #58484B",
"n  c #57464A",
"m  c #58504D",
"M  c #4C4C53",
"N  c #4D4250",
"B  c #514651",
"V  c #554B54",
"C  c #584D56",
"Z  c #594F59",
"A  c #554A58",
"S  c #555554",
"D  c #595657",
"F  c #5B5855",
"G  c #55545C",
"H  c #595759",
"J  c #57585C",
"K  c #5D5D5D",
"L  c #614A50",
"P  c #615D5D",
"I  c #5E615C",
"U  c #60605E",
"Y  c #5D5561",
"T  c #5E5F61",
"R  c #625E61",
"E  c #5E6160",
"W  c #616162",
"Q  c #6A6462",
"!  c #64656C",
"~  c #696768",
"^  c #666B6D",
"/  c #6C6B6C",
"(  c #70726F",
")  c #6C6671",
"_  c #6E6C71",
"`  c #6C6C79",
"'  c #656A70",
"]  c #726D74",
"[  c #7C6E7B",
"{  c #6D7175",
"}  c #6F717D",
"|  c #76767B",
" . c #7A747F",
".. c #6C7380",
"X. c #7B7781",
"o. c #7B7D82",
"O. c #7B7C8A",
"+. c #727B84",
"@. c #817B83",
"#. c #817C89",
"$. c #79838F",
"%. c #7F8B98",
"&. c #82838C",
"*. c #89868F",
"=. c #808684",
"-. c #838D99",
";. c #869399",
":. c #8D9799",
">. c #92969C",
",. c #8E95A1",
"<. c #8B9BA4",
"1. c #8A9BA6",
"2. c #9795A0",
"3. c #969EA5",
"4. c #999CA4",
"5. c #939DA8",
"6. c #9D9DAA",
"7. c #A19FAD",
"8. c #92A3A7",
"9. c #9AA3AD",
"0. c #98A2A8",
"q. c #9CAAB4",
"w. c #9DAFB9",
"e. c #99A5B1",
"r. c #A2A0AE",
"t. c #A4A8AE",
"y. c #ABA5AF",
"u. c #A3A4B3",
"i. c #A4ABB6",
"p. c #ABABB5",
"a. c #A3A6B9",
"s. c #A5ACBA",
"d. c #A9ACBB",
"f. c #A7B0B5",
"g. c #A6B2BA",
"h. c #AAB3BE",
"j. c #B2B0BE",
"k. c #AEAFC1",
"l. c #A7B3C3",
"z. c #ACB4C3",
"x. c #AFBBC7",
"c. c #A8B9C9",
"v. c #A7BBC4",
"b. c #B2B3C4",
"n. c #BBBAC6",
"m. c #B4BDCB",
"M. c #B9BCCB",
"N. c #B9B7C7",
"B. c #B8BDD0",
"V. c #C1B9C6",
"C. c #ADC6CD",
"Z. c #B3C2CD",
"A. c #B3C4D2",
"S. c #B6CDDF",
"D. c #B9CFDC",
"F. c #B7CAD4",
"G. c #BCD4DB",
"H. c #BCD6E1",
"J. c #BFDBE5",
"K. c #BEDEE9",
"L. c #C2CFDF",
"P. c #C9CBD7",
"I. c #CED2DD",
"U. c #C3D6E3",
"Y. c #C3D9E3",
"T. c #CCD8E5",
"R. c #C3E5EE",
"E. c #CBE4EE",
"W. c #CBE8EE",
"Q. c #C6E6F3",
"!. c #CAE5F4",
"~. c #CBE9F5",
"^. c #CBE6F9",
"/. c #CEECFA",
"(. c #C2E5F8",
"). c #D5E6F6",
"_. c #D2E9F7",
"`. c #D4E7F8",
"'. c #D2EDFB",
"]. c #CDF2FD",
"[. c #D4F3FD",
"{. c #DBF6FD",
"}. c #D6FDFF",
"|. c #DCFDFE",
" X c #D6F2F6",
".X c #E2FDFE",
"XX c #EBFFFE",
"oX c #F1FEFE",
"OX c #0x58e87c",
/* pixels */
"OXOXOXOXOXOXOXOXOXOXOXOXOXOXOXOXOXOXOXOXOXOXOXOXOXOXOXOXOXOXOXOXOXOXOXOXOXOXOXOXOXOXOXOXOXOXOXOXOXOXOXOXOXOXOXOXOXOXOXOXOXOXOXOX",
"OXOXOXOXOXOXOXOXOXOXOXOXOXOXOXOXOXOXOXOXOXOXOXOXOXOXOXOXOXOXOXOXOXOXOXOXOXOXOXOXOXOXOXOXOXOXOXOXOXOXOXOXOXOXOXOXOXOXOXOXOXOXOXOX",
"OXOXOXOXOXOXOXOXOXOXOXOXOXOXOXOXOXOXOXOXOXOXOXOXOXOXOXOXOXOXOXOXOXOXOXOXOXOXOXOXOXOXOXOXOXOXOXOXOXOXOXOXOXOXOXOXOXOXOXOXOXOXOXOX",
"OXOXOXOXOXOXOXOXOXOXOXOXOXOXOXOXOXOXOXOXOXOXOXOXOXOXOXOXOXOXOXOXOXOXOXOXOXOXOXOXOXOXOXOXOXOXOXOXOXOXOXOXOXOXOXOXOXOXOXOXOXOXOXOX",
"OXOXOXOXOXOXOXOXOXOXOXOXOXOXOXOXOXOXOXOXOXOXOXOXOXOXOXOXOXOXOXOXOXOXOXOXOXOXOXOXOXOXOXOXOXOXOXOXOXOXOXOXOXOXOXOXOXOXOXOXOXOXOXOX",
"OXOXOXOXOXOXOXOXOXOXOXOXOXOXOXOXOXOXOXOXOXOXOXOXOXOXOXOXOXOXOXOXOXOXOXOXOXOXOXOXOXOXOXOXOXOXOXOXOXOXOXOXOXOXOXOXOXOXOXOXOXOXOXOX",
"OXOXOXOXOXOXOXOXOXOXOXOXOXOXOXOXOXOXOXOXOXOXOXOXOXOXOXOXOXOXOXOXOXOXOXOXOXOXOXOXOXOXOXOXOXOXOXOXOXOXOXOXOXOXOXOXOXOXOXOXOXOXOXOX",
"OXOXOXOXOXOXOXOXOXOXOXOXOXOXOXOXOXOXOXOXOXOXOXOXOXOXOXOXOXOXOXOXOXOXOXOXOXOXOXOXOXOXOXOXOXOXOXOXOXOXOXOXOXOXOXOXOXOXOXOXOXOXOXOX",
"OXOXOXOXOXOXOXOXOXOXOXOXOXOXOXOXOXOXOXOXOXOXOXOXOXOXOXOXOXOXOXOXOXOXOXOXOXOXOXOXOXOXOXOXOXOXOXOXOXOXOXOXOXOXOXOXOXOXOXOXOXOXOXOX",
"OXOXOXOXOXOXOXOXOXOXOXOXOXOXOXOXOXOXOXOXOXOXOXOXOXOXOXOXOXOXOXOXOXOXOXOXOXOXOXOXOXOXOXOXOXOXOXOXOXOXOXOXOXOXOXOXOXOXOXOXOXOXOXOX",
"OXOXOXOXOXOXOXOXOXOXOXOXOXOXOXOXOXOXOXOXOXOXOXOXOXOXOXOXOXOXOXOXOXOXOXOXOXOXOXOXOXOXOXOXOXOXOXOXOXOXOXOXOXOXOXOXOXOXOXOXOXOXOXOX",
"OXOXOXOXOXOXOXOXOXOXOXOXOXOXOXOXOXOXOXOXOXOXOXOXOXOXOXOXOXOXOXOXOXOXOXOXOXOXOXOXOXOXOXOXOXOXOXOXOXOXOXOXOXOXOXOXOXOXOXOXOXOXOXOX",
"OXOXOXOXOXOXOXOXOXOXOXOXOXOXOXOXOXOXOXOXOXOXOXOXOXOXOXOXOXOXOXOXOXOXOXOXOXOXOXOXOXOXOXOXOXOXOXOXOXOXOXOXOXOXOXOXOXOXOXOXOXOXOXOX",
"OXOXOXOXOXOXOXOXOXOXOXOXOXOXOXOXOXOXOXOXOXOXOXOXOXOXOXOXOXOXOXOXOXOXOXOXOXOXOXOXOXOXOXOXOXOXOXOXOXOXOXOXOXOXOXOXOXOXOXOXOXOXOXOX",
"OXOXOXOXOXOXOXOXOXOXOXOXOXOXOXOXOXOXOXOXOXOXOXOXOXOXOXOXOXOXOXOXOXOXOXOXOXOXOXOXOXOXOXOXOXOXOXOXOXOXOXOXOXOXOXOXOXOXOXOXOXOXOXOX",
"OXOXOXOXOXOXOXOXOXOXOXOXOXOXOXOXOXOXOXOXOXOXOXOXOXOXOXOXOXOXOXOXOXOXOXOXOXOXOXOXOXOXOXOXOXOXOXOXOXOXOXOXOXOXOXOXOXOXOXOXOXOXOXOX",
"OXOXOXOXOXOXOXOXOXOXOXOXOXOXOXOXOXOXOXOXOXOXOXOXOXOXOXOXOXOXOXOXOXOXOXOXOXOXOXOXOXOXOXOXOXOXOXOXOXOXOXOXOXOXOXOXOXOXOXOXOXOXOXOX",
"OXOXOXOXOXOXOXOXOXOXOXOXOXOXOXOXOXOXOXOXOXOXOXOXOXOXOXOXOXOXOXOXOXOXOXOXOXOXOXOXOXOXOXOXOXOXOXOXOXOXOXOXOXOXOXOXOXOXOXOXOXOXOXOX",
"OXOXOXOXOXOXOXOXOXOXOXOXOXOXOXOXOXOXOXOXOXOXOXOXOXOXOXOXOXOXOXOXOXOXOXOXOXOXOXOXOXOXOXOXOXOXOXOXOXOXOXOXOXOXOXOXOXOXOXOXOXOXOXOX",
"OXOXOXOXOXOXOXOXOXOXOXOXOXOXOXOXOXOXOXOXOXOXOXOXOXOXOXOXOXOXOXOXOXOXOXOXOXOXOXOXOXOXOXOXOXOXOXOXOXOXOXOXOXOXOXOXOXOXOXOXOXOXOXOX",
"OXOXOXOXOXOXOXOXOXOXOXOXOXOXOXOXOXOXOXOXOXOXOXOXOXOXOXOXOXOXOXOXOXOXOXOXOXOXOXOXOXOXOXOXOXOXOXOXOXOXOXOXOXOXOXOXOXOXOXOXOXOXOXOX",
"OXOXOXOXOXOXOXOXOXOXOXOXOXOXOXOXOXOXOXOXOXOXOXOXOXOXOXOXOXOXOXOXOXOXOXOXOXOXOXOXOXOXOXOXOXOXOXOXOXOXOXOXOXOXOXOXOXOXOXOXOXOXOXOX",
"OXOXOXOXOXOXOXOXOXOXOXOXOXOXOXOXOXOXOXOXOXOXOXOXOXOXOXOXOXOXOXOXOXOXOXOXOXOXOXOXOXOXOXOXOXOXOXOXOXOXOXOXOXOXOXOXOXOXOXOXOXOXOXOX",
"OXOXOXOXOXOXOXOXOXOXOXOXOXOXOXOXOXOXOXOXOXOXOXOXOXOXOXOXOXOXOXOXOXOXOXOXOXOXOXOXOXOXOXOXOXOXOXOXOXOXOXOXOXOXOXOXOXOXOXOXOXOXOXOX",
"OXOXOXOXOXOXOXOXOXOXOXOXOXOXOXOXOXOXOXOXOXOXOXOXOXOXOXOXOXOXOXOXOXOXOXOXOXOXOXOXOXOXOXOXOXOXOXOXOXOXOXOXOXOXOXOXOXOXOXOXOXOXOXOX",
"OXOXOXOXOXOXOXOXOXOXOXOXOXOXOXOXOXOXOXOXOXOXOXOXOXOXOXOXOXOXOXOXOXOXOXOXOXOXOXOXOXOXOXOXOXOXOXOXOXOXOXOXOXOXOXOXOXOXOXOXOXOXOXOX",
"OXOXOXOXOXOXOXOXOXOXOXOXOXOXOXOXOXOXOXOXOXOXOXOXOXOXOXOXOXOXOXOXOXOXOXOXOXOXOXOXOXOXOXOXOXOXOXOXOXOXOXOXOXOXOXOXOXOXOXOXOXOXOXOX",
"OXOXOXOXOXOXOXOXOXOXOXOXOXOXOXOXOXOXOXOXOXOXOXOXOXOXOXOXOXOXOXOXOXOXOXOXOXOXOXOXOXOXOXOXOXOXOXOXOXOXOXOXOXOXOXOXOXOXOXOXOXOXOXOX",
"OXOXOXOXOXOXOXOXOXOXOXOXOXOXOXOXOXOXOXOXOXOXOXOXOXOXOXOXOXOXOXOXOXOXOXOXOXOXOXOXOXOXOXOXOXOXOXOXOXOXOXOXOXOXOXOXOXOXOXOXOXOXOXOX",
"OXOXOXOXOXOXOXOXOXOXOXOXOXOXOXOXOXOXOXOXOXOXOXOXOXOXOXOXOXOXOXOXOXOXOXOXOXOXOXOXOXOXOXOXOXOXOXOXOXOXOXOXOXOXOXOXOXOXOXOXOXOXOXOX",
"OXOXOXOXOXOXOXOXOXOXOXOXOXOXOXOXOXOXOXOXOXOXOXOXOXOXOXOXOXOXOXOXOXOXOXOXOXOXOXOXOXOXOXOXOXOXOXOXOXOXOXOXOXOXOXOXOXOXOXOXOXOXOXOX",
"OXOXOXOXOXOXOXOXOXOXOXOXOXOXOXOXOXOXOXOXOXOXOXOXOXOXOXOXOXOXOXOXOXOXOXOXOXOXOXOXOXOXOXOXOXOXOXOXOXOXOXOXOXOXOXOXOXOXOXOXOXOXOXOX",
"OXOXOXOXOXOXOXOXOXOXOXOXOXOXOXOXOXOXOXOXOXOXOXOXOXOXOXOXOXOXOXOXOXOXOXOXOXOXOXOXOXOXOXOXOXOXOXOXOXOXOXOXOXOXOXOXOXOXOXOXOXOXOXOX",
"OXOXOXOXOXOXOXOXOXOXOXOXOXOXOXOXOXOXOXOXOXOXOXOXOXOXOXOXOXOXOXOXOXOXOXOXOXOXOXOXOXOXOXOXOXOXOXOXOXOXOXOXOXOXOXOXOXOXOXOXOXOXOXOX",
"OXOXOXOXOXOXOXOXOXOXOXOXOXOXOXOXOXOXOXOXOXOXOXOXOXOXOXOXOXOXOXOXOXOXOXOXOXOXOXOXOXOXOXOXOXOXOXOXOXOXOXOXOXOXOXOXOXOXOXOXOXOXOXOX",
"OXOXOXOXOXOXOXOXOXOXOXOXOXOXOXOXOXOXOXOXOXOXOXOXOXOXOXOXOXOXOXOXOXOXOXOXOXOXOXOXOXOXOXOXOXOXOXOXOXOXOXOXOXOXOXOXOXOXOXOXOXOXOXOX",
"OXOXOXOXOXOXOXOXOXOXOXOXOXOXOXOXOXOXOXOXOXOXOXOXOXOXOXOXOXOXOXOXOXOXOXOXOXOXOXOXOXOXOXOXOXOXOXOXOXOXOXOXOXOXOXOXOXOXOXOXOXOXOXOX",
"OXOXOXOXOXOXOXOXOXOXOXOXOXOXOXOXOXOXOXOXOXOXOXOXOXOXOXOXOXOXOXOXOXOXOXOXOXOXOXOXOXOXOXOXOXOXOXOXOXOXOXOXOXOXOXOXOXOXOXOXOXOXOXOX",
"OXOXOXOXOXOXOXOXOXOXOXOXOXOXOXOXOXOXOXOXOXOXOXOXOXOXOXOXOXOXOXOXOXOXOXOXOXOXOXOXOXOXOXOXOXOXOXOXOXOXOXOXOXOXOXOXOXOXOXOXOXOXOXOX",
"OXOXOXOXOXOXOXOXOXOXOXOXOXOXOXOXOXOXOXOXOXOXOXOXOXOXOXOXOXOXOXOXOXOXOXOXOXOXOXOXK 6 3 6 7 4 > > : OXOXOXOXOXOXOXOXOXOXOXOXOXOXOX",
"OXOXOXOXOXOXOXOXOXOXOXOXOXOXOXOXOXOXOXOXOXOXOXOXOXOXOXOXOXOXOXOXOXOXOXOXOXOXOXOXv [ p.6.3.8.H.J.U.% : OXOXOXOXOXOXOXOXOXOXOXOXOX",
"OXOXOXOXOXOXOXOXOXOXOXOXOXOXOXOXOXOXOXOXOXOXOXOXOXOXOXOXOXOXOXOXOXOXOXOXOXOXOXOXM *.I.b.l.x.}.|.XX. $ OXOXOXOXOXOXOXOXOXOXOXOXOX",
"OXOXOXOXOXOXOXOXOXOXOXOXOXOXOXOXOXOXOXOXOXOXOXOXOXOXOXOXOXOXOXOXOXOXOXOXOXOXOXOXG #.n.t.s.s.a.U./.{.}.w o OXOXOXOXOXOXOXOXOXOXOX",
"OXOXOXOXOXOXOX5 & : & OXOXOXOXOXOXOXOXOXOXOXOXOXOXOXOXOXOXOXOXOXOXOXOXOXOXOXOXOXOXB . &.s.d.i.d.l.'.E.Q.T.. OXOXOXOXOXOXOXOXOXOX",
"OXOXOXOXOXOXOX2 ; ; O OXOXOXOXOXOXOXOXOXOXOXOXOXOXOXOXOXOXOXOXOXOXOXOXOXOXOXOXOXOXz   O.d.d.i.u.u./.!.}.{.O OXOXOXOXOXOXOXOXOXOX",
"OXOXOXOXOXOX4 !.F.u.% OXOXOXOXOXOXOXOXOXOXOXOXOXOXOXOXOXOX) 3 @ OXOXOXOXOXOXOXOXOXB o &.i.d.d.s.d.e.L.!.^. X0 = OXOXOXOXOXOXOXOX",
"OXOXOXOX1 = `.h.k.7.& OXOXOXOXOXOX@ @ @ % o B OXOXOXOX]   ` R.XX  # ) OXOXOXOXOXM  .V.t.i.d.d.i.d.g.d.T.[.!. XT.* OXOXOXOXOXOXOX",
"OXOXOXOX# . .Xd.N.9.o OXOXOXOX  q  X!.!.i.  x OXOXOXOX_   | !.^.!.R.`   ] OXOX  ;.^._.c.q.d.s.d.s.i.l.l.l.|.}.~.O OXOXOXOXOXOXOX",
"OXOXOXOXq 9 _.g.b.7.4 2.6.6.y.* M |.].'.g.  x OXOXOXOX_   } !.Q.'.].$.  ) ,.OXX e././.A.s.d.i.d.s.d.t.3.0.Y.Y.G.7 OXOXOXOXOXOXOX",
"OXOXOX, K..Xu.s.u.p.m.q 8 q 3 |.].~.R.!.q.  N OXOXOXOX| O ] H./.!.!.~.XXO.t : XXQ.^.!._.A.d.d.9.9.7.! I P H m P Y.; OXOXOXOXOXOX",
"OXOXOX> J.[.i.s.s.s.a._.[././.!.!.!.R.).g.  e OXOXOXOXOXOX_ ..XX~.!.!.!.!././.E.Q.!.!.Q.]..Xj._ D K P K W W W P H % OXOXOXOXOXOX",
"OXOXOX> G.[.i.s.s.d.a.'.'././.!.^.Q.!.Y.,.= Y OXOXOXOXOXOX_ ..XX!.!.!.!././.'.!.!.!.~.!.J.G.6._ D K U W I W R E F ; OXOXOXOXOXOX",
"OXOXOXp w.Z.p.f.d.s.h.!./.!.!.!.!.!.|.w.u OXOXOXOXOXOXOXOX/ ;..X!.!.Q.~.!.!.!.!.Q.G.F.F.+.S K K E U / { ( K E E P ; OXOXOXOXOXOX",
"OXOXOXOXo   P.f.u.h.!.!.!.!.!.!.!.~..Xi.O $ # @ # # # +   ! /.R.!.!.!.!.!.!.!.R.[.%.l F P I K H H S p.B.n.D I E R ; OXOXOXOXOXOX",
"OXOXOXOXOXOX. z.M.A.!.!.~.!.!.^.!.!.^.^.n.y j k j j L 8.XX/.!.!.!.!.!.!.!.[.|.oX%.R I I D S S 6.N.M.' D K W Q P % . OXOXOXOXOXOX",
"OXOXOXOXOXOXOXO.#.;.E.!.!.!.!.!.!.!.!.(.b.y d s j s b <.XX!.!.^.~.R.!.!.Q.D.v.L.O.R E E { | { 9.h.4.' K I T E W ; u OXOXOXOXOXOX",
"OXOXOXOXOXOXOXo   = {.|..XQ.!.!.!.!.^.W.l.t s s s i b <..X^.!.!.^.).^.!.].,.e S P D D S 3.M.l.b.n.v K T K ^ / Q O OXOXOXOXOXOXOX",
"OXOXOXOXOXOXOXOXOXOX    2 XX.X|..XXXQ.W.l.r d j s i z 1.|.Q.!.!.!.!.[.XX:.K W S S >.M.b.d.s.Z.{ M W ^ ( ~ . . o OXOXOXOXOXOXOXOX",
"OXOXOXOXOXOXOXOXOXOXOXOXG 9.9.9.6.1./.Q.l.r d s j i b ,.{.!.^.^.^.!.S.C.=.W I o.| 3.z.d.d.k.:.) J E c v z c g z OXOXOXOXOXOXOXOX",
"OXOXOXOXOXOXOXOXOXOXOXOXOXx c M V g 5.5.$.8 r t t t p ^ e.5.<.5.<.<.{ h z z l o.X.X. . .X.o.h z z z M x A OXOXOXOXOXOXOXOXOXOXOX",
"OXOXOXOXOXOXOXOXOXOXOXOXOXOXOXOXOXOX      . . . . . O .             . . . .                 . .     OXOXOXOXOXOXOXOXOXOXOXOXOXOX",
"OXOXOXOXOXOXOXOXOXOXOXOXOXOXOXOXOXOXx C V Z V C V C C M V C V V V V C C C V Z V C V V V C A S C C V OXOXOXOXOXOXOXOXOXOXOXOXOXOX",
"OXOXOXOXOXOXOXOXOXOXOXOXOXOXOXOXOXOXOXOXOXOXOXOXOXOXOXOXOXOXOXOXOXOXOXOXOXOXOXOXOXOXOXOXOXOXOXOXOXOXOXOXOXOXOXOXOXOXOXOXOXOXOXOX",
"OXOXOXOXOXOXOXOXOXOXOXOXOXOXOXOXOXOXOXOXOXOXOXOXOXOXOXOXOXOXOXOXOXOXOXOXOXOXOXOXOXOXOXOXOXOXOXOXOXOXOXOXOXOXOXOXOXOXOXOXOXOXOXOX"
};
