/* XPM */
static char *tree[] = {
/* columns rows colors chars-per-pixel */
"64 64 32 1 ",
"  c #0x1D3915",
". c #0x213716",
"X c #0x213814",
"o c #0x243B17",
"O c #0x223818",
"+ c #0x263D19",
"@ c #0x2F2121",
"# c #0x3A2A2D",
"$ c #0x453333",
"% c #0x2E4719",
"& c #0x2D461B",
"* c #0x2F471D",
"= c #0x304715",
"- c #0x354C1B",
"; c #0x304A1D",
": c #0x324C1E",
"> c #0x385119",
", c #0x3E551D",
"< c #0x3D561F",
"1 c #0x3F5819",
"2 c #0x3A5120",
"3 c #0x315A25",
"4 c #0x425822",
"5 c #0x415B22",
"6 c #0x465F21",
"7 c #0x51423D",
"8 c #0x41702F",
"9 c #0x5E4843",
"0 c #0x5E4D45",
"q c #0x5F873A",
"w c #0x769E48",
"e c #0x58e87c",
/* pixels */
"eeeeeeeeeeeeeeeeeeeeeeeeeeeeeeeeeeeeeeeeeeeeeeeeeeeeeeeeeeeeeeee",
"eeeeeeeeeeeeeeeeeeeeeeeeeeeeeee888eeeeeeeeeeeeeeeeeeeeeeeeeeeeee",
"eeeeeeeeeeeeeeeeeeeeeeeeeeeeee8www8888eeeeeeeeeeeeeeeeeeeeeeeeee",
"eeeeeeeeeeeeeeeeeeeeeeeeeee888qwwqwwwq88eeeeeeeeeeeeeeeeeeeeeeee",
"eeeeeeeeeeeeeeeeeeeeeeeeee8qqqqqqqwwwwww8eeeeeeeeeeeeeeeeeeeeeee",
"eeeeeeeeeeeeeeeeeeeeeeee88qqqwwwqqwwwwwww8eeeeeeeeeeeeeeeeeeeeee",
"eeeeeeeeeeeeeeeeeee88888wwqqqqwwwqqqwwwwqw8eeeeeeeeeeeeeeeeeeeee",
"eeeeeeeeeeeeeeeeeee8wwwwwwwqqqqwwwqqqwwwqqw8eeeeeeeeeeeeeeeeeeee",
"eeeeeeeeeeeeeeeeee8qqqqwwwwwwqqqwwwwqqwqwqww8eeeeeeeeeeeeeeeeeee",
"eeeeeeeeeeeeeeeee3qqqwqqwwwwwqqqqqwwwwqqwwqww8eeeeeeeeeeeeeeeeee",
"eeeeeeeeeeeeeee3388qqwwwqqqwwwqqqqqqwwqqqqqqww8eeeeeeeeeeeeeeeee",
"eeeeeeeeeeeeee3q3333qqqwwqqqqqqqqqqqqqqqwwwwqqw888eeeeeeeeeeeeee",
"eeeeeeeeeeeee3qqwwwqqqqqqqwwwqqqwwqqqqqqqwwwwqqwww8eeeeeeeeeeeee",
"eeeeeeeee3333qqwwwwwww88qqqqwwqq8wwwqqqqqqqqwwqqwww888eeeeeeeeee",
"eeeeeeee3qqqwqqqqqwwwww38qqqqqqq88wwq8qqqq88qqqqwwwwww8eeeeeeeee",
"eeeeeeee3qq8www8qqqwwwwq38qq8qqqq88qq88qqqqq8wwwqqqqqqw3eeeeeeee",
"eeeeeee3qqq88www8qqqwwqq888888qq8qqqq88qqq88qqwwwqqqqqw3eeeeeeee",
"eeeeee388qq33qqq8qqqqqqq8888qq8q8888qq833q88qqqww888qqq3eeeeeeee",
"eeeeee3q888q333883qq88qww88q8qqqwwq88qq838qqqqqqqqw8qqq3eeeeeeee",
"eeeeeee38q3383333338q88qw33qq8qqwwwwqqq8888qqwwqq8wwqq3eeeeeeeee",
"eeeeeee3333q8qq83388qq8qqq33qq8qqqwwwq88qq88qqwwq83wwqq3eeeeeeee",
"eeeeeeee33888qqwq88qq8qqq8833qq8qqqqqq388qq883qqqq833qqq3eeeeeee",
"eeeeeeee338888qqww88qq8q88qq8888888qq833q8888338qqqqqwww3eeeeeee",
"eeeeeeee 388338qqq883888888qq888q8888888qq88qw833qqqqqww3eeeeeee",
"eeeeeeee 33883388883338q8888qqq88qq8qq888qqq8qw8888qqqq3eeeeeeee",
"eeeeeeeee 33888888338888qq88888888qqq883888q88qw8qq88q3eeeeeeeee",
"eeeeeeeee   3388q33338883888888888388888388888qq88qqq83eeeeeeeee",
"eeeeeeeee 888388qq83338883383338888338333388888q8888883eeeeeeeee",
"eeeeeeeee 388888888333338888883388888888883888888388333eeeeeeeee",
"eeeeeeee 33383388833338888qqw8833833888qw83338888333883eeeeeeeee",
"eeeeeeee 333383833333388888qqw8333338888qw8388888883383eeeeeeeee",
"eeeeeeee 333338888q338888q888qq833838q888qq3833838qqqq33eeeeeeee",
"eeeeeeee   3333388q3338888q888q8338888qq88q83883388qqqq3eeeeeeee",
"eeeeeeee  33333338333388888q88833388888888883383338q8883eeeeeeee",
"eeeeeeeee 388833333 3333888888 3338838838888333388888883eeeeeeee",
"eeeeeeeee  38833333 333388338 @ 33383883333 33388q88883 eeeeeeee",
"eeeeeeeeee 333 38883 33338833 @ 3338338833 @33338qq83  3eeeeeeee",
"eeeeeeeeee 33 333888 3338338    3333833383 @ 33388q3 eeeeeeeeeee",
"eeeeeeeee 33  333388 3333833 @   33333833 @ 33883883eeeeeeeeeeee",
"eeeeeeeee 33  3333883 333333 @@   3333333 @ 33388383  eeeeeeeeee",
"eeeeeeeee  3   333383  33333 @$@   33333 @@  33333338 eeeeeeeeee",
"eeeeeeeee      333333    333 @$$@     3 @$@   3333333 eeeeeeeeee",
"eeeeeeeeee   e  3333         $90$@@     @$ee     3333 eeeeeeeeee",
"eeeeeeeeeee ee   333 #@@  @$77909$$e@$@@$eee   e  33  eeeeeeeeee",
"eeeeeeeeeeeeeee   3  e##@@$$7790977e$7$$$eeeeeee      eeeeeeeeee",
"eeeeeeeeeeeeeee     eee###$$7900077$$79$eeeeeeeeee    eeeeeeeeee",
"eeeeeeeeeeeeeeee    eeeee#$$$00907$$770$eeeeeeeeeee  eeeeeeeeeee",
"eeeeeeeeeeeeeeeeeeeeeeeee#$$$70907$779$eeeeeeeeeeeeeeeeeeeeeeeee",
"eeeeeeeeeeeeeeeeeeeeeeeeee#7$70007$07$645eeeeeeeeeeeeeeeeeeeeeee",
"eeeeeeeeeeeeeeeeeeeeeeeeee#7$79707707$>>,<eeeeeeeeeeeeeeeeeeeeee",
"eeeeeeeeeeeeeeeeeeeeeeee&&#7$79707097$;;<6<eeeeeeeeeeeeeeeeeeeee",
"eeeeeeeeeeeeeeeeeeeeeee:::#$$77797090$:;;566eeeeeeeeeeeeeeeeeeee",
"eeeeeeeeeeeeeeeeeeeeee;;;o#$$7779709$X;&&*<66eeeeeeeeeeeeeeeeeee",
"eeeeeeeeeeeeeeeeeeeee**Ooo#$$0779709$oO:;&&5eeeeeeeeeeeeeeeeeeee",
"eeeeeeeeeeeeeeeeeeeee;oooo$$79779770$#oOO;;,2eeeeeeeeeeeeeeeeeee",
"eeeeeeeeeeeeeeeeeeee&ooo#$$$797707779$OOOO;*<6eeeeeeeeeeeeeeeeee",
"eeeeeeeeeeeeeeeeeeeeOO##$$$$797707#$7$$$ooo;5eeeeeeeeeeeeeeeeeee",
"eeeeeeeeeeeeeeeeeee+$$$$$$$$707707$#$799$+oo<6eeeeeeeeeeeeeeeeee",
"eeeeeeeeeeeeeeeeeee;oooooo#$777707#o#$7779$$<1eeeeeeeeeeeeeeeeee",
"eeeeeeeeeeeeeeeeeee*;;:++##$$$777#+oO.Xooo-->eeeeeeeeeeeeeeeeeee",
"eeeeeeeeeeeeeeeeeeee<**;;o+####$77##++:::<<>eeeeeeeeeeeeeeeeeeee",
"eeeeeeeeeeeeeeeeeeeeee<<;;;o++++XX77#:;=>>eeeeeeeeeeeeeeeeeeeeee",
"eeeeeeeeeeeeeeeeeeeeeeeee25:::5<25===>>eeeeeeeeeeeeeeeeeeeeeeeee",
"eeeeeeeeeeeeeeeeeeeeeeeeeeeeeeeeeeeeeeeeeeeeeeeeeeeeeeeeeeeeeeee"
};
