/* XPM */
static char *house[] = {
/* columns rows colors chars-per-pixel */
"63 64 183 2 ",
"   c #563D2E",
".  c #593F2E",
"X  c #59412E",
"o  c #4B4237",
"O  c #4D4439",
"+  c #5F4630",
"@  c #50473C",
"#  c #7D562D",
"$  c #674D35",
"%  c #694D35",
"&  c #6A4E3A",
"*  c #664E38",
"=  c #6C5236",
"-  c #6B533B",
";  c #705136",
":  c #7B5C34",
">  c #72563A",
",  c #76593C",
"<  c #7A5C3D",
"1  c #755837",
"2  c #7C633A",
"3  c #5F564A",
"4  c #6C5A42",
"5  c #60574A",
"6  c #61584B",
"7  c #6B5C46",
"8  c #725B43",
"9  c #7C5E40",
"0  c #715F49",
"q  c #7E6344",
"w  c #74634C",
"e  c #79644D",
"r  c #6C6355",
"t  c #706750",
"y  c #7A6750",
"u  c #716952",
"i  c #7E6B53",
"p  c #776D5C",
"a  c #7C735B",
"s  c #865D2C",
"d  c #805D3F",
"f  c #8C602B",
"g  c #8D6432",
"h  c #856D36",
"j  c #81643D",
"k  c #886C3B",
"l  c #83683A",
"z  c #956B33",
"x  c #976B31",
"c  c #8C7A39",
"v  c #8C703F",
"b  c #9C7133",
"n  c #937439",
"m  c #977939",
"M  c #9B7D39",
"N  c #9C7639",
"B  c #A57635",
"V  c #AB7B35",
"C  c #A77D3B",
"Z  c #B07F36",
"A  c #815E40",
"S  c #836343",
"D  c #8A6645",
"F  c #876844",
"G  c #8C6A46",
"H  c #876C4C",
"J  c #8C6D4A",
"K  c #846748",
"L  c #906E48",
"P  c #8D7840",
"I  c #8E7042",
"U  c #987240",
"Y  c #93724A",
"T  c #98774D",
"R  c #99784D",
"E  c #957247",
"W  c #8A6F52",
"Q  c #8B7152",
"!  c #80755E",
"~  c #9B7B51",
"^  c #847C65",
"/  c #887E68",
"(  c #897E66",
")  c #98873C",
"_  c #A38333",
"`  c #A5863E",
"'  c #A7883F",
"]  c #AB8A3D",
"[  c #B38436",
"{  c #B58B36",
"}  c #B2883F",
"|  c #BA9435",
" . c #BF9C35",
".. c #B1903E",
"X. c #B9973C",
"o. c #948142",
"O. c #9F8057",
"+. c #9F835E",
"@. c #AB8A42",
"#. c #B38943",
"$. c #AF9D46",
"%. c #BB9C42",
"&. c #B59542",
"*. c #A0845D",
"=. c #B2A242",
"-. c #B7A648",
";. c #BBA944",
":. c #87816A",
">. c #8C846D",
",. c #8A8067",
"<. c #91866E",
"1. c #8E8570",
"2. c #8E8A72",
"3. c #938A72",
"4. c #938F78",
"5. c #988E79",
"6. c #959077",
"7. c #96927A",
"8. c #99947B",
"9. c #9D997E",
"0. c #A68962",
"q. c #A48760",
"w. c #C29E44",
"e. c #C69944",
"r. c #D19E46",
"t. c #C3A045",
"y. c #CDA544",
"u. c #CFAB44",
"i. c #D4A447",
"p. c #D5AC46",
"a. c #D6AB49",
"s. c #DAAC48",
"d. c #D5A648",
"f. c #C5B34A",
"g. c #D4B146",
"h. c #D9B347",
"j. c #D0B049",
"k. c #DCB349",
"l. c #D5BA49",
"z. c #DEBB4A",
"x. c #E1B649",
"c. c #E3BC4A",
"v. c #D3C24C",
"b. c #DCC64C",
"n. c #DECC4D",
"m. c #DECF50",
"M. c #E6C24C",
"N. c #E8C54C",
"B. c #E6CA4F",
"V. c #EACB4D",
"C. c #E0D24F",
"Z. c #ECD14F",
"A. c #E7CC50",
"S. c #E8CF50",
"D. c #E3D451",
"F. c #EED550",
"G. c #EEDA52",
"H. c #F1DD53",
"J. c #F4E455",
"K. c #F7E856",
"L. c #9C9682",
"P. c #9E9C82",
"I. c #A09782",
"U. c #A19E84",
"Y. c #A19B88",
"T. c #A3A186",
"R. c #A6A38A",
"E. c #A9A68B",
"W. c #ACA98E",
"Q. c #ADAB91",
"!. c #B1AE92",
"~. c #B3B094",
"^. c #B6B49A",
"/. c #B9B79D",
"(. c #BAB89E",
"). c #BDBBA3",
"_. c #BFBEA8",
"`. c #C0BEA5",
"'. c #C0BFA9",
"]. c #C4C3AC",
"[. c #CBCAB4",
"{. c #CFCFB8",
"}. c #0x58e87c",
/* pixels */
"}.}.}.}.}.}.}.}.}.}.}.}.}.}.}.}.}.}.}.}.}.}.}.}.}.}.}.}.}.}.9 q 9 }.}.}.}.}.}.}.}.}.}.}.}.}.}.}.}.}.}.}.}.}.}.}.}.}.}.}.}.}.}.",
"}.}.}.}.}.}.}.}.}.}.}.}.}.}.}.}.}.}.}.}.}.}.}.}.}.}.}.}.4 q *.0.Q . }.}.}.}.}.}.}.}.}.}.}.}.}.}.}.}.}.}.}.}.}.}.}.}.}.}.}.}.}.",
"}.}.}.}.}.}.}.}.}.}.}.}.}.}.}.}.}.}.}.}.}.}.}.}.}.}.F &.c.q O.0.Q u.j.2 }.}.}.}.}.}.}.}.}.}.}.}.}.}.}.}.}.}.}.}.}.}.}.}.}.}.}.",
"}.}.}.}.}.}.}.}.}.}.}.}.}.}.}.}.}.}.}.}.}.}.}.}.S =.Z.K.B.S 0.0.S g.J.H.;.M }.}.}.}.}.}.}.}.}.}.}.}.}.}.}.}.}.}.}.}.}.}.}.}.}.",
"}.}.}.}.}.}.}.}.}.}.}.}.}.}.}.}.}.}.}.}.}.}., y.D.J.J.J.V.q *.0.J g.J.J.J.G.l.= }.}.}.}.}.}.}.}.}.}.}.}.}.}.}.}.}.}.}.}.}.}.}.",
"}.}.}.}.}.}.}.}.}.}.}.}.}.}.}.}.}.}.}.}.}.N V.K.H.J.J.Z.c.S *.0.H p.N.H.J.H.J.H.] }.}.}.}.}.}.}.}.}.}.}.}.}.}.}.}.}.}.}.}.}.}.",
"}.}.}.}.}.}.}.}.}.}.}.}.}.}.}.}.}.}.}.- @.r.N.V.H.J.J.H.V.q 0.0.S g.H.J.J.J.V.V.d.w.+ }.}.}.}.}.}.}.}.}.}.}.}.}.}.}.}.}.}.}.}.",
"}.}.}.}.}.}.}.}.}.}.}.}.}.}.}.}.}.o.o.G.F.i.c.N.J.J.J.J.V.q 0.0.Q g.J.J.J.J.V.M.d.M.J.) c }.}.}.}.}.}.}.}.}.}.}.}.}.}.}.}.}.}.",
"}.}.}.}.}.}.}.}.}.}.}.}.}.}., #.f.J.K.J.V.r.N.J.J.J.J.G.V.q O.0.Q p.J.G.J.J.J.V.i.M.H.J.K.v.&.g }.}.}.}.}.}.}.}.}.}.}.}.}.}.}.",
"}.}.}.}.}.}.}.}.}.}.}.}.}.2 z.c.J.J.J.N.M.i.H.J.J.J.B.J.J.q O.0.Q C.J.Z.J.J.J.J.z.c.N.H.J.J.M.c.h }.}.}.}.}.}.}.}.}.}.}.}.}.}.",
"}.}.}.}.}.}.}.}.}.}.}.$.-.m.M.M.J.J.G.J.F.c.V.J.J.K.K.J.G.K O.q.J b.J.J.J.J.J.H.c.V.J.F.J.J.G.x.J.=.=.}.}.}.}.}.}.}.}.}.}.}.}.",
"}.}.}.}.}.}.}.}.}.p.D.J.J.J.M.M.J.J.J.J.F.s.J.J.J.J.J.J.V.q O.0.Q g.J.J.J.J.J.J.x.N.J.J.J.J.G.k.J.J.K.C.l.1 }.}.}.}.}.}.}.}.}.",
"}.}.}.}.}.}.}.}.e.H.J.J.J.J.A.k.J.J.J.J.Z.x.V.J.J.J.J.Z.c.K O.0.Q g.N.J.J.J.J.G.c.N.J.J.J.J.S.x.J.J.J.J.J.x.: }.}.}.}.}.}.}.}.",
"}.}.}.}.& & f.l.s.J.J.J.J.J.J.a.H.J.J.J.G.i.H.J.J.J.J.V.G.K O.q.K b.Z.G.J.J.J.J.s.M.J.J.J.J.x.V.J.J.J.J.J.c.j.v.  . }.}.}.}.}.",
"}.}.I P D.J.J.N.F.H.F.H.J.J.c.a.H.J.J.J.J.d.J.J.J.J.J.J.A.S ~ 0.q g.J.J.J.J.J.J.k.H.J.J.J.J.x.k.H.J.J.V.H.H.c.H.J.J.c h }.}.}.",
"}.@.G.K.J.J.J.c.x.c.H.J.J.N.c.d.J.J.G.V.V.i.V.G.J.J.J.H.M.S *.0.H g.G.J.J.J.Z.J.i.c.F.F.J.J.x.z.c.H.J.J.N.c.x.H.J.J.K.H.%.}.}.",
"}.t.M.G.J.J.J.G.s.H.J.J.G.M.c.s.H.J.J.J.J.N.c.H.J.J.J.J.J.q ~ 0.H C.J.J.J.J.J.N.x.J.J.J.J.J.c.k.J.J.J.J.J.c.c.J.J.J.H.N.x.  }.",
"}.t.F.J.J.J.J.c.x.H.J.J.a.A.k.N.J.J.J.J.J.x.F.J.J.J.J.K.J.q *.0.Q C.J.J.J.J.J.H.x.F.J.J.J.J.G.c.J.J.J.J.J.M.c.H.J.J.J.H.x.X }.",
"}.w.J.J.J.J.J.c.s.J.J.J.D.A.c.c.J.J.J.J.F.i.J.J.J.K.J.K.D.K 0.0.F l.J.J.J.J.J.J.H.k.K.J.J.K.N.c.J.J.J.J.J.c.s.H.J.J.J.J.c.  }.",
"}.w.J.H.J.J.S.c.s.J.K.J.H.V.c.c.H.J.J.J.J.s.N.H.J.J.J.G.V.9 *.0.S k.Z.J.J.J.J.N.c.F.r.H.J.J.c.c.H.J.J.J.J.c.s.N.J.J.J.J.M.  }.",
"}.t.V.Z.J.J.H.c.c.H.J.J.J.J.M.d.J.Z.J.J.F.s.N.J.J.K.J.J.J.q *.0.Q C.J.J.J.J.J.H.s.s.x.H.H.H.x.s.J.J.K.J.J.M.x.J.G.K.H.N.z.  }.",
"}.e.V.J.J.J.J.H.V.J.J.J.J.J.J.c.c.J.K.J.J.s.V.J.J.J.J.J.V.K 0.~ Q l.J.J.J.J.J.H.s.c.F.J.K.V.M.F.J.J.J.J.J.H.V.J.J.J.J.F.z.  }.",
"}.t.J.J.J.J.J.c.x.H.J.J.J.J.H.c.Z.J.J.J.F.c.H.J.J.J.J.H.J.S 0.~ W C.G.J.J.J.J.J.N.N.J.J.J.F.c.F.J.J.J.J.J.c.x.J.K.J.J.J.c.  }.",
"}.e.J.J.J.J.J.N.F.J.J.J.J.J.J.V.J.J.J.J.F.c.J.J.K.J.J.K.J.q 0.~ W C.J.J.J.J.J.J.V.V.J.J.J.J.H.G.J.J.J.J.J.H.c.H.J.J.J.J.M.  }.",
"}.t.J.J.J.J.K.M.G.H.J.J.J.K.M.x.F.J.J.J.J.a.F.J.J.J.J.J.H.K 0.*.Q b.J.J.J.J.J.J.a.J.J.J.J.G.c.x.J.J.J.J.G.J.c.J.J.J.J.J.b.  }.",
"}.t.J.J.J.J.J.c.z.c.J.J.J.K.M.s.N.J.J.J.J.s.J.J.J.J.J.H.c.2 *.0.Q p.Z.J.J.J.J.J.k.J.J.J.J.V.x.k.J.J.J.J.V.M.k.G.J.K.J.K.z.  }.",
"}.w.G.G.K.J.J.H.s.J.J.J.J.J.J.s.H.J.J.J.F.i.V.H.Z.J.J.V.M.q *.0.Q g.V.H.J.H.H.Z.i.N.K.J.J.K.M.B.J.J.J.J.J.c.B.J.J.J.H.F.c.  }.",
"}.t.M.J.J.J.J.V.V.J.J.J.J.J.V.N.Z.J.J.J.F.x.c.V.J.J.J.J.H.S *.0.K b.J.J.J.J.H.c.x.N.J.J.K.Z.V.B.J.J.J.J.J.G.N.J.J.J.K.Z.z.  }.",
"}.w.H.J.J.J.J.M.Z.V.J.J.J.K.M.s.V.J.J.J.H.d.V.J.J.J.J.A.i.q *.R H e.k.H.J.J.J.G.d.V.J.J.J.V.x.x.J.J.J.J.V.G.Z.J.J.J.J.J.M.  }.",
"}.w.J.J.J.J.J.V.s.V.J.J.J.H.c.k.H.J.J.J.H.x.H.J.J.B.s.i.%.F Y L F ..w.s.M.G.J.H.z.Z.J.J.J.J.N.k.Z.J.J.J.G.c.M.J.J.J.J.K.z.  }.",
"}.w.J.J.J.J.J.H.c.J.J.J.J.F.c.c.J.J.J.J.F.d.Z.c.a.x.m k A S $ * , A G h h.k.s.H.s.N.K.J.J.J.G.s.H.F.J.K.J.M.Z.J.J.K.J.J.M.  }.",
"}.t.J.J.J.J.J.J.Z.J.J.J.J.J.V.M.H.J.J.K.Z.x.d.i.%.% G < w a T.U.3.t < G = ` y.i.k.c.K.J.J.J.c.N.J.J.J.J.J.J.Z.J.J.J.H.K.z.  }.",
"}.t.V.M.H.J.J.J.G.J.J.J.J.J.J.s.J.J.J.z.z.k.M I < < - >.R.Q.~.~.!.W.>.y = S F m u.z.s.J.J.J.c.Z.J.K.J.J.J.H.F.J.J.J.N.V.x.  }.",
"}.t.c.F.J.J.J.c.M.N.Z.J.J.J.J.d.D.V.i.g...= G j - ,.P.~.~.!.~.~.~.~.~.T.8.4 < S < k h.i.z.G.x.B.J.J.J.H.M.G.s.H.J.J.H.c.N.l.}.",
"}.t.M.H.J.J.K.c.s.F.J.J.J.J.H.r.s.d.] S D 1 w ! P.T.~.~.~.~.~.~.~.~.~.~.!.P.^ a ; G q ] %.k.i.B.K.K.K.J.H.c.s.H.J.K.J.V.c.Z.) ",
"}.w.J.J.J.J.J.c.s.H.J.J.J.J.s.z.m l L S - 3.P.Q.^./.W.T.U.U.U.Q.~.~.~.!.!.Q.[.E.7.- < I G : k.s.p.H.J.J.J.x.s.J.J.J.J.J.M.} }.",
"}.w.J.J.J.J.J.c.z.J.D.G.J.V.%., G j e a T.!.~.~.!._.2.{.].].`.7.~.~.!.~.!.Q.^.!.~.R.3.p < L < ' %.d.B.D.J.V.s.H.J.K.J.J.c.  }.",
"}.w.J.J.J.J.J.c.M.k.z.J.H.s.E A & ^ R.!.~.~.~.~.~.~.L./.!.!.!.2.U.U.U.7.9.P.~.~.~.~.!.W.3.w > G I h p.k.a.G.a.J.J.J.J.J.c.  }.",
"}.t.G.V.J.J.G.A.r.d.H.M.k.N w ( P.).E.~.~.~.~.~.~.~.].4.L.P.L.!.~.].(.[.Q.P.!.~.~.~.~.!.W.9.5.0 9 Y , n u.i.c.F.K.J.V.Z.c.  }.",
"}.e.G.J.J.k.k.s.n i.d.C G :.E.!.~.8.L.U.T.T.R.~.~.~.~._.E.!.!.~.~.~.~.!.!.).R.9.U.T.T.U.].W.).W.>.w , G F M w.k.l.F.J.J.c.  }.",
"}.t.V.B.r.h.M < Y S , 3.P.~.~.~.U.[.[.^.[.^.`.W.!.!.!.Q.!.!.~.~.~.!.~.~.~.~.].Y.{.].`.^.^.~.~.~.4.).L.4 9 L F : k.d.k.F.x.  }.",
"}.t.M.t...9 Y G % $ ^ 2.3.3.3.3.^ 3.3.3.3.3.<.<.3.3.3.<.<.3.5.5.3.3.3.3.3.3.3.( <.3.3.3.3.3.3.3./ I.3./ 0 $ S R 2 ` &.c.x.  }.",
"}.#.p.j Y R G , +.+.+.+.*.*.+.*.q.*.*.*.*.*.*.*.q.*.q.*.~ ~ q.~ *.*.*.*.q.*.*.*.*.*.*.*.*.*.*.<.q.<.~ q.+.*.J A R Y L X.e.X }.",
"}.}.+ 9 Y J A F G G J J G S A A J Y Y Y Y Y G d L L L G D D W G L G A S A G Y L L E E Y L E U D d G L S A L E S J S d X X }.}.",
"}.}.}.= % % % % = 1 > > = % % % % % $ % % % % % % % % % % = = > ; ; % % % % % % % % % % % % % % ; 1 > % % % % % % % = }.}.}.}.",
"}.}.}.}.$ A A d ^ P.P.P.>.U.P.P.P.P.P.L.L.0 S A A 1 D G D D G G D D D D S ; S A % I.9.U.U.>.P.7.9.9.U.U.U.8.; j S % }.}.}.}.}.",
"}.}.}.}.* D Y d 3.~.~.~.P.).~.~.~.~.~.U.).y D E A = < < < < < < < < < < < > L L % !.~.~.~.9.E.).~.~.!.~.~.W.> L G % }.}.}.}.}.",
"}.}.}.}.> D R Y <.~.~.Q.T.).!.Q.Q.Q.R.].!.H T R d 1 S S S j S S F S S S S < Y R > !.~.~.!.9.].W.!.Q.Q.~.~.W.S R Y % }.}.}.}.}.",
"}.}.}.}.> D L Y <.^.W.3.1.1.1.1.1.1.R.^.~.i T Y A > q S S S j S S S q S 9 9 T Y > !.!.9.>.3.1.1.<.<.<.U.~.W.S L Y % }.}.}.}.}.",
"}.}.}.}.4 G G L <.!.1.p 6 6 6 6 6 6 / 1.^.i Y Y A g B B B s B B z b B B B 8 Y G > !.L.5.3 6 6 6 5 5 6 5.T.E.S G Y % }.}.}.}.}.",
"}.}.}.}.> D T Y 3.!./ r O O O O O O 1.:.~.i T T D g V { Z f [ { b B { { B 9 T Y , !.8.8.o O O O O O @ 5.U.L.S Y Y % }.}.}.}.}.",
"}.}.}.}.- T D L p P.>.r O O O O O O / ^ ^.i Y L Y g |  .| V  . .[ {  . .{ S T G 1 4.1.8.o O O O O @ @ 5.W.^.j D R > }.}.}.}.}.",
"}.}.}.}.> R G Y Y.^./ r O O O O O O / ^ ^.i Y Y Y g  . . .[  . .| |  . .| K T G 1 [.R.5.o o O o o O @ 5.U.W.D D R , }.}.}.}.}.",
"}.}.}.}.> R G L 1.!./ 4.4.4.4.4.4.7.L.^ ~.i Y L I g |  . .[  . .{  . . .| S T G > !.7.8.4.7.4.4.4.4.4.5.I.W.j D R > }.}.}.}.}.",
"}.}.}.}.8 T Y Y <.~.).5.I.I.I.I.L.I.1.Q.~.i T T Y g  . . .[  . .|  . . .| F R T > !.!.<.I.I.I.I.I.I.I.3.~.E.S T R 1 }.}.}.}.}.",
"}.}.}.}.> R L Y 3.~.(.R.R.E.7.^ 6.4.E.~.~.H T Y Y g  . . .[  . .| |  . .| S R Y > !.~.U.P.6.3.R.R.L.E.).W.W.S L R > }.}.}.}.}.",
"}.}.}.}.8 T T Y 1.~.!.~.(.(.!.U.~.~.~.~.~.i R R L g  . . .[  . .{ |  . .| S R R > !.E._.^.~.T.(.^.^.(.W.W.W.A T R 1 }.}.}.}.}.",
"}.}.}.}.> Y Y Y a Q.Q.Q.~.!.Q.4.E.E.W.E.W.y R G L g  . . .{  . .| |  . .| k D R 1 !.W.~.~.~.T.W.E.E.R.W.W.W.S T G 1 }.}.}.}.}.",
"}.}.}.}.- L Y D L.).'.Q.~.~.!.L.].).(.E./.e Y D Y g  . . .[  . .| |  . .| F D T = W.!.~.~.~.!.E.T.9.I.W.!.W.d T G > }.}.}.}.}.",
"}.}.}.}.8 Y Y A 2.~.^.4.~.~.!.T.^.~.~.~.~.i G G L g  . . .[  . .{ |  . .| F D E % W.R.~.~.~.~.~.~.E.!.!.!.W., E G > }.}.}.}.}.",
"}.}.}.}.> Y Y A a 8.8.3.7.8.7.3.8.8.8.8.7.e G G Y g  . . .[  . .| |  . .| S G Y % 4.>.8.8.8.8.8.8.3.8.8.7.4.1 T G 1 }.}.}.}.}.",
"}.}.}.}.> Y Y A 0 a a a a a a a a a a a a 8 D T Y g  . . .[  . .{ |  . .| q D Y % a a a a a a a a a a a a a < T T > }.}.}.}.}.",
"}.}.}.}.- Y T j 7 u u u u u u u u u u u u , G Y G : z _ b # B _ g g _ _ z S Y Y % u u u u u u u u u u u u t < R Y - }.}.}.}.}.",
"}.}.}.}.}.% = % }.}.}.}.}.}.}.}.}.}.}.}.}.}.= % % }.}.}.}.}.}.}.}.}.}.}.}.% $ - }.}.}.}.}.}.}.}.}.}.}.}.}.}.% = % }.}.}.}.}.}."
};
