/* XPM */
static char *house_open[] = {
/* columns rows colors chars-per-pixel */
"63 64 177 2 ",
"   c #3F3931",
".  c #563D2E",
"X  c #593F2E",
"o  c #59412E",
"O  c #4B4237",
"+  c #4D4439",
"@  c #5F4630",
"#  c #50473C",
"$  c #674D35",
"%  c #694D35",
"&  c #664E38",
"*  c #6A4E3A",
"=  c #6C5236",
"-  c #6B533B",
";  c #705136",
":  c #7A5C35",
">  c #72563A",
",  c #76593C",
"<  c #7A5C3D",
"1  c #755837",
"2  c #7C633A",
"3  c #5F564A",
"4  c #6C5A42",
"5  c #60574A",
"6  c #61584B",
"7  c #6E5F49",
"8  c #675943",
"9  c #725B43",
"0  c #7C5E40",
"q  c #715F49",
"w  c #7E6344",
"e  c #74634C",
"r  c #79644D",
"t  c #6C6355",
"y  c #706750",
"u  c #7A6750",
"i  c #716952",
"p  c #7E6B53",
"a  c #776D5C",
"s  c #7C735B",
"d  c #865D2C",
"f  c #805D3F",
"g  c #8D6532",
"h  c #856D36",
"j  c #81643D",
"k  c #886C3B",
"l  c #83683A",
"z  c #8C7A39",
"x  c #8C703F",
"c  c #937439",
"v  c #977939",
"b  c #9B7D39",
"n  c #99703E",
"m  c #A97C33",
"M  c #A77D3B",
"N  c #815F40",
"B  c #836343",
"V  c #8A6645",
"C  c #876844",
"Z  c #8C6A46",
"A  c #846748",
"S  c #876C4C",
"D  c #8C6D4A",
"F  c #906E48",
"G  c #8D7840",
"H  c #8E7042",
"J  c #987240",
"K  c #93724A",
"L  c #98774D",
"P  c #99784D",
"I  c #957247",
"U  c #8A6F52",
"Y  c #8B7152",
"T  c #80755E",
"R  c #9B7B51",
"E  c #847C65",
"W  c #887E68",
"Q  c #897E66",
"!  c #98873C",
"~  c #A5863E",
"^  c #A7883F",
"/  c #AB8A3D",
"(  c #B38436",
")  c #B2883F",
"_  c #BA9235",
"`  c #BE9A35",
"'  c #B1903E",
"]  c #BA973F",
"[  c #B9993F",
"{  c #948142",
"}  c #9F8057",
"|  c #9F835E",
" . c #AB8A42",
".. c #B38943",
"X. c #AF9D46",
"o. c #BB9C42",
"O. c #B59542",
"+. c #A0845D",
"@. c #B2A242",
"#. c #B7A648",
"$. c #BBA944",
"%. c #8A8067",
"&. c #87816A",
"*. c #8C846D",
"=. c #91866E",
"-. c #8E8570",
";. c #8E8A72",
":. c #938A72",
">. c #938F78",
",. c #988E79",
"<. c #959077",
"1. c #96927A",
"2. c #99947B",
"3. c #9D997E",
"4. c #A48760",
"5. c #A68962",
"6. c #C29E44",
"7. c #C69944",
"8. c #D19E46",
"9. c #C3A045",
"0. c #CDA544",
"q. c #CFAB44",
"w. c #D4A447",
"e. c #D5AC46",
"r. c #D6AB49",
"t. c #DAAC48",
"y. c #D5A648",
"u. c #C5B34A",
"i. c #D4B146",
"p. c #D9B347",
"a. c #D0B049",
"s. c #DCB349",
"d. c #D5BA49",
"f. c #DEBB4A",
"g. c #E1B649",
"h. c #E3BC4A",
"j. c #D3C24C",
"k. c #DCC64C",
"l. c #DECC4D",
"z. c #DECF50",
"x. c #E6C24C",
"c. c #E8C54C",
"v. c #E6CA4F",
"b. c #EACB4D",
"n. c #E0D24F",
"m. c #ECD14F",
"M. c #E7CC50",
"N. c #E8CF50",
"B. c #E3D451",
"V. c #EED550",
"C. c #EEDA52",
"Z. c #F1DD53",
"A. c #F4E455",
"S. c #F7E856",
"D. c #9C9682",
"F. c #9E9C82",
"G. c #A09782",
"H. c #A19E84",
"J. c #A19B88",
"K. c #A3A186",
"L. c #A6A38A",
"P. c #A9A68B",
"I. c #ACA98E",
"U. c #ADAB91",
"Y. c #B1AE92",
"T. c #B3B094",
"R. c #B6B49A",
"E. c #B9B79D",
"W. c #BAB89E",
"Q. c #BDBBA3",
"!. c #BFBEA8",
"~. c #C0BEA5",
"^. c #C0BFA9",
"/. c #C4C3AC",
"(. c #CBCAB4",
"). c #CFCFB8",
"_. c #0x58e87c",
/* pixels */
"_._._._._._._._._._._._._._._._._._._._._._._._._._._._._._.w w 0 _._._._._._._._._._._._._._._._._._._._._._._._._._._._._._.",
"_._._._._._._._._._._._._._._._._._._._._._._._._._._._.- w } 5.Y X _._._._._._._._._._._._._._._._._._._._._._._._._._._._._.",
"_._._._._._._._._._._._._._._._._._._._._._._._._._.k O.g.w +.5.Y q.a.2 _._._._._._._._._._._._._._._._._._._._._._._._._._._.",
"_._._._._._._._._._._._._._._._._._._._._._._._.B X.V.A.b.B 5.5.B a.A.Z.$.b _._._._._._._._._._._._._._._._._._._._._._._._._.",
"_._._._._._._._._._._._._._._._._._._._._._., 0.V.A.A.A.b.B +.5.D i.A.A.A.C.d.= _._._._._._._._._._._._._._._._._._._._._._._.",
"_._._._._._._._._._._._._._._._._._._._._.n b.S.C.A.A.B.h.A +.5.S e.c.Z.A.Z.A.Z./ _._._._._._._._._._._._._._._._._._._._._._.",
"_._._._._._._._._._._._._._._._._._._.-  .8.c.b.Z.A.A.Z.c.w 5.5.B i.Z.A.A.A.b.b.y.9.@ _._._._._._._._._._._._._._._._._._._._.",
"_._._._._._._._._._._._._._._._._.{ { C.V.w.h.c.A.A.A.A.b.w 5.5.Y i.A.A.A.A.b.x.y.x.A.! z _._._._._._._._._._._._._._._._._._.",
"_._._._._._._._._._._._._._., ..u.S.S.A.c.w.c.A.A.A.A.C.b.w } 5.Y e.A.C.A.A.A.m.w.x.Z.A.A.k.O.g _._._._._._._._._._._._._._._.",
"_._._._._._._._._._._._._.2 f.h.Z.A.A.b.x.w.A.A.A.A.b.A.A.w } 5.Y n.A.m.A.A.A.A.f.h.c.Z.A.A.x.g.h _._._._._._._._._._._._._._.",
"_._._._._._._._._._._.X.#.z.x.x.A.A.C.A.V.h.b.A.A.A.S.A.C.w } 5.D k.A.A.A.A.A.Z.x.c.A.V.A.A.Z.g.A.@.@._._._._._._._._._._._._.",
"_._._._._._._._._.e.B.A.A.A.x.x.A.A.A.A.V.r.Z.A.A.S.A.A.N.w } 5.Y i.A.A.A.A.A.A.f.c.A.A.A.A.C.t.A.A.S.n.d.1 _._._._._._._._._.",
"_._._._._._._._.7.Z.A.A.A.A.M.s.A.A.A.A.C.g.b.A.A.A.A.V.h.B } 5.Y i.b.A.A.A.A.Z.g.c.A.A.A.A.N.f.A.A.A.A.A.g.: _._._._._._._._.",
"_._._._.* * u.d.t.A.A.A.A.A.A.r.Z.A.A.A.m.w.Z.A.A.A.A.b.C.A } 5.A k.m.V.A.A.A.A.t.x.A.A.A.S.g.b.A.A.A.A.A.h.a.j.. X _._._._._.",
"_._.H G B.A.A.c.V.Z.V.Z.A.A.h.r.A.A.A.A.Z.r.A.A.A.A.A.A.b.w R 4.w i.A.S.A.A.A.A.s.Z.A.A.A.A.g.s.Z.A.A.b.Z.Z.h.Z.A.A.z h _._._.",
"_. .C.S.A.A.A.h.g.h.Z.A.A.c.h.y.Z.A.C.b.b.w.b.C.A.A.A.Z.x.B +.5.S i.V.A.A.A.V.C.w.h.V.m.A.A.g.f.h.Z.A.A.c.h.g.Z.A.A.S.Z.o._._.",
"_.9.x.C.A.A.A.C.t.Z.A.A.C.x.h.t.Z.A.A.A.A.c.h.Z.S.A.A.A.A.w } 5.U n.A.A.A.A.A.c.h.A.A.A.A.A.g.g.Z.A.A.A.A.h.h.A.A.A.Z.c.g.. _.",
"_.9.V.A.A.A.A.h.g.Z.A.A.r.M.s.c.A.A.A.A.A.g.V.A.A.A.A.A.S.w +.5.Y n.A.A.A.A.A.Z.g.V.A.A.A.A.Z.g.A.A.A.A.A.x.h.Z.A.A.A.Z.g.o _.",
"_.6.A.A.A.A.A.h.t.A.A.A.B.M.h.h.A.A.A.A.V.w.A.A.A.A.A.S.B.B 5.5.B d.A.A.A.A.A.A.Z.t.A.A.A.A.c.h.A.A.A.A.A.h.t.Z.A.A.A.A.h.. _.",
"_.6.A.Z.A.A.N.h.t.A.S.A.Z.b.h.h.Z.A.A.A.A.t.c.Z.A.S.A.C.b.0 +.5.B d.m.A.A.A.A.c.h.V.w.Z.A.A.h.h.A.A.A.A.A.h.t.c.A.A.A.A.x.. _.",
"_.9.b.m.A.A.Z.h.h.Z.A.A.A.A.x.y.A.m.A.A.V.t.c.A.A.A.A.A.S.w +.5.U B.A.A.A.A.A.Z.t.t.g.Z.Z.Z.h.s.A.A.A.S.A.x.g.A.C.S.Z.c.f.. _.",
"_.7.b.A.A.A.A.Z.b.A.A.A.A.A.A.h.h.A.S.A.A.t.b.A.A.A.A.A.b.B 5.} Y s.A.A.A.A.A.Z.t.h.V.A.A.b.h.V.A.A.A.A.A.Z.b.A.A.A.A.V.f.. _.",
"_.9.A.A.A.A.A.h.g.Z.A.A.A.A.Z.h.m.A.A.A.V.h.Z.A.A.A.A.A.A.w 5.R U n.C.A.A.A.A.A.c.c.A.A.A.V.h.V.A.A.A.A.A.h.g.A.S.A.A.A.h.. _.",
"_.7.A.A.A.A.A.c.V.A.A.A.A.A.A.b.A.A.A.A.V.h.A.A.A.A.A.A.S.w 5.P Y n.A.A.A.A.A.A.b.b.A.A.A.A.Z.C.A.A.A.A.A.Z.h.Z.A.A.A.A.x.. _.",
"_.9.A.A.A.A.S.x.C.Z.A.A.A.S.x.g.V.A.A.A.A.r.V.A.A.A.A.A.Z.B 5.+.U k.A.A.A.A.A.A.r.A.A.A.A.C.h.g.A.A.A.A.Z.A.f.A.A.A.A.A.k.. _.",
"_.9.A.A.A.A.A.h.f.h.A.A.A.S.x.t.c.A.A.A.A.t.A.A.A.A.A.Z.x.w +.5.Y i.m.A.A.A.A.A.s.A.A.A.A.b.g.s.A.A.A.A.b.x.p.A.S.A.A.S.f.. _.",
"_.6.C.C.S.A.A.Z.t.A.A.A.A.A.A.t.Z.A.A.A.V.w.b.Z.m.A.A.b.x.< +.5.Y e.b.Z.A.V.Z.m.w.c.S.A.A.A.x.v.A.A.A.A.A.h.x.A.A.A.Z.V.h.. _.",
"_.9.x.A.A.A.A.b.b.A.A.A.A.A.b.c.m.A.A.A.V.g.h.b.A.A.A.A.Z.w 5.5.A k.A.A.A.A.Z.x.g.c.A.A.A.C.b.b.A.A.A.A.A.C.c.A.A.A.S.m.f.. _.",
"_.6.Z.A.A.A.A.x.m.b.A.A.A.S.x.t.b.A.A.A.Z.y.b.A.A.A.A.M.w.w } R S 7.f.Z.A.A.A.C.w.c.A.A.A.b.g.g.Z.A.A.A.b.C.m.A.A.A.A.A.x.. _.",
"_.6.A.A.A.A.A.b.t.b.A.A.A.Z.h.s.Z.A.A.A.Z.g.Z.A.A.v.t.w.O.C F F V ' 6.t.x.C.A.A.f.C.A.A.A.A.x.s.V.A.A.A.V.h.x.S.A.A.A.S.f.. _.",
"_.6.A.A.A.A.A.Z.h.A.A.A.A.V.h.h.A.A.A.A.V.y.m.h.r.g.v k B B % % , f Z l p.p.r.Z.t.c.S.A.A.S.C.t.Z.V.A.S.A.x.m.A.A.S.A.A.x.. _.",
"_.9.A.A.A.A.A.A.m.A.A.A.A.A.b.x.Z.A.A.S.m.g.y.w.o.% Z < e s K.K.:.e < Z = ~ 0.w.s.h.S.A.A.A.h.c.A.A.A.A.A.A.m.A.A.A.Z.S.f.. _.",
"_.6.b.c.Z.A.A.A.m.A.A.A.A.A.A.t.A.A.A.f.s.s.b H < < = *.L.I.T.T.T.I.*.e = B C v q.f.p.A.A.A.g.B.A.A.A.A.A.A.V.A.A.A.c.b.h.X _.",
"_.6.h.V.A.A.A.h.x.c.C.A.A.A.Z.w.m.v.w.i.' 1 Z 2 - &.F.T.T.T.Y.T.T.T.T.K.2.4 < C < k e.y.f.C.g.v.A.A.A.Z.h.V.t.Z.A.A.Z.h.h.d._.",
"_.9.x.Z.A.A.S.h.r.V.A.A.A.A.A.8.t.e./ B B , e T D.K.R.T.T.T.T.T.T.Y.T.T.T.D.E s = H w ^ o.s.w.b.A.A.A.A.Z.h.r.A.A.A.A.M.h.m.! ",
"_.6.A.A.A.A.A.h.r.A.A.A.A.S.t.g.v j K B - :.F.Y.R.E.I.F.K.H.H.U.T.T.T.T.I.U.(.P.1.- < F Z : f.r.t.A.A.S.A.h.t.C.A.A.A.A.x..._.",
"_.6.A.A.A.A.A.h.f.A.B.V.A.b.o., Z B u s K.Y.T.T.T.Q.>.).(./.Q.1.T.Y.T.T.Y.T.R.T.T.P.;.p < Z , ^ 6.r.x.B.A.M.t.A.S.A.A.A.h.. _.",
"_.6.A.A.A.A.A.h.x.p.h.A.A.t.I f = s L.Y.T.T.T.T.T.T.3.R.Y.Y.Y.:.H.H.H.1.3.D.T.T.T.T.U.I.:.e , Z F h e.p.t.Z.t.Z.A.A.A.A.h.. _.",
"_.9.V.M.A.A.C.N.8.y.Z.x.p.n e Q F.Q.P.T.T.T.T.T.T.T./.>.2.D.2.Y.Y./.E.(.U.F.T.T.T.T.T.Y.I.3.1.e < I < c q.y.h.V.A.A.b.m.h.. _.",
"_.6.V.S.A.s.s.r.c w.y.M Z W P.Y.Y.2.D.K.H.K.L.T.T.T.T.!.P.R.Y.Y.T.T.T.T.T.W.P.2.H.K.K.K./.U.W.U.*.q , Z B b 6.g.d.C.A.A.h.. _.",
"_.9.b.x.w.s.! , K C > :.F.T.Y.T.K.(.(.R.(.R.~.I.Y.Y.Y.I.I.Y.Y.R.T.T.T.T.T.T./.J.)./.~.R.T.T.T.T.>.Q.D.4 0 F C : s.r.s.V.g.. _.",
"_.9.x.9.' 0 K Z $ & E ;.:.:.:.:.&.;.:.:.:.:.=.=.:.:.,.=.=.:.,.,.:.:.:.:.:.:.:.Q =.:.:.:.:.:.:.:.W G.:.W q % j K < ~ O.h.g.o _.",
"_...t.j K P Z > | | | | +.+.| +.| | +.| +.+.+.+.4.4.+.+.+.4.R R +.+.| | 4.+.+.+.R 4.+.+.| | +.| 4.=.R 4.| +.S V P K F [ 7.o _.",
"_._.@ 0 K F B B Z Z Z Z Z B B N F K K K K K Z f F F F F N V F D Z Z B B N Z K K L I I I K K K V f Z F B N F F V Z B f o o _._.",
"_._._.= % % % % 1 - 1 > = % % = % % % % % % % % % % % % $ = 1 = ; > % % % % % % * * % % % % $ $ ; 1 1 % % % % % % % % _._._._.",
"_._._._.$ N N f E F.F.H.*.H.F.3.F.H.F.2.D.q f B N , B V V V V Z V V V V j ; N N % D.H.H.D.-.F.2.3.H.G.G.H.2.; B B = _._._._._.",
"_._._._.* V F N =.T.T.T.F.Q.R.T.T.T.T.H.Q.u V F N = < < < < < , < , < < < , F F % Y.Y.T.T.3.P.Q.R.T.T.T.Y.I.1 F Z % _._._._._.",
"_._._._.; Z P F ;.T.T.U.K.Q.U.I.U.I.P./.Y.U g g N 1 j B B B B C C B B B B < K P 1 Y.Y.Y.Y.D./.I.I.I.I.T.Y.I.B P K % _._._._._.",
"_._._._.9 B F K ;.Y.U.:.-.=.-.-.;.-.L.T.R.p g _ d , B B w w 2 w j w B B w < K K , Y.T.D.=.;.-.-.=.-.:.H.T.U.C I K % _._._._._.",
"_._._._.> V F F ;.Y.*.a 6 6 6 6 6 3 W ;.R.p g _ _ d                       < L Z 1 Y.3.,.3 6 6 6 6 6 6 >.H.P.B V K % _._._._._.",
"_._._._.> V L K :.Y.%.t # + + + + O -.E Y.p g ` ` (                       0 K L > Y.2.,.O + + + + + # ,.J.D.C I F % _._._._._.",
"_._._._.> L V F a G.*.t + + + + O O -.E R.p g ` ` m                       B P Z , >.;.,.+ + + + + + # ,.P.R.j V L > _._._._._.",
"_._._._.9 L Z K J.Y.*.t + + O + O O -.E R.p g _ ` (                       B L S 1 (.L.,.O O + O + + + ,.H.I.B V P > _._._._._.",
"_._._._.> P V K ;.Y.W 1.>.>.>.>.<.<.D.E T.p g ` ` (                       w L V 1 U.>.D.>.>.>.>.<.>.>.,.H.I.C V P 1 _._._._._.",
"_._._._.> L L F ;.Y.Q.,.G.G.G.G.D.G.;.I.T.p g ` ` m .                     r L L 1 Y.Y.*.G.G.G.D.G.G.G.>.Y.P.V L P , _._._._._.",
"_._._._.9 L F F :.Y.W.J.L.P.>.W <.>.P.Y.R.S g ` ` (                     . B L F 1 Y.R.H.H.>.:.L.L.D.P.Q.P.I.j F P > _._._._._.",
"_._._._.> L L K ;.T.Y.T.Q.E.Y.H.T.T.T.Y.T.p g ` ` (                       B P P 1 Y.P.!.R.T.K.W.E.R.E.I.P.I.V P P 1 _._._._._.",
"_._._._.4 K K K E U.U.Y.Y.Y.U.>.I.I.I.P.I.u g ` ` m                       B V P 1 Y.I.Y.T.T.K.I.P.P.P.P.I.P.B P V 1 _._._._._.",
"_._._._.> F K V ,.~.^.U.T.T.Y.D.^.Q.W.I.R.r g ` ` m                       A V L = I.U.T.T.T.Y.I.H.3.H.I.T.I.< K Z > _._._._._.",
"_._._._.9 K F B -.Y.Y.,.T.T.U.L.R.T.T.T.R.p g ` ` (                       B V K % I.P.T.T.T.T.T.Y.P.U.T.Y.I.< L Z 1 _._._._._.",
"_._._._.- K K N s 2.2.:.2.2.<.:.2.2.2.2.2.e g ` ` (                       B V K % >.=.2.2.2.2.2.2.:.<.2.2.>., K Z > _._._._._.",
"_._._._.> K K N 7 s s s s s s s s s s s s 9 g _ ` (                       A V K % s s s s s s s T s s T s s < K P > _._._._._.",
"_._._._.> K K B 8 i i i i i i i i i i i i > g _ _ (                       w K K % i i i i i i i i i y y i y < L K > _._._._._.",
"_._._._._.% = = _._._._._._._._._._._._._._.g g g _._._._._._._._._._._._.= % = _._._._._._._._._._._._._._.% = $ _._._._._._."
};
