/* XPM */
static char *ground[] = {
/* columns rows colors chars-per-pixel */
"64 64 2 1 ",
"  c #5D4F19",
". c #6C5B1D",
/* pixels */
".....  ...                   .......                     . .....",
"...     .                 . .........  ...                   ...",
"           .....              .....     .         .. ..   .   . ",
"      .      ...   .. ..   .   .           .....   ....  ...    ",
"  ....          .   ....  ...         .      ..     .   ....    ",
".   .   .   .        .   ....     ....                  .....  .",
".       ..    ..         .....  .   .   .   .  ..     .......  .",
"      ......    ..     .......  .       ..    .......  ...      ",
"            .   ......  ...           ......                    ",
"                                            .                .. ",
".........     .               ..                             ...",
"....          ..              ...........     ..     ....      .",
"  .             .     ....      ....          .............     ",
"     .........  ............      .              ...            ",
"..  ....       .  ...                .........    .            .",
"    ..             .            ..  ....            ...   ....  ",
"..        ..         ...   ....     ..                      ....",
".      .                     ....      .                     ...",
"             ... .  .......                  ... .  .......     ",
"              . .    ......                   . .    ......     ",
"    ...           ..  .....         ...           ..  .....     ",
".. . .....     . ...   ..  ... ... . .....     . ...   ..  ... .",
".          .... .              ..          .... .              .",
"             .  .              .             .  .              .",
" ..              ....    .       ..              ....    .      ",
" ..   ..   ..    ......     ..   ..   ..   ..    ......     ..  ",
"       ..        ...       .....       ..        ...       .....",
"         ..     .         .... .         ..     .         .... .",
" ......  ...   ..    ...    ...  ......  ...   ..    ...    ... ",
" . ........    . .......         . ........    . .......        ",
"     ...         ....                ...         ....           ",
"....                         .......                         ...",
".....  ...                . .........  ...                . ....",
"...     .                     .....     .                     ..",
"           .....   .. ..   .   .           .....   .. ..   .   .",
"      .      ....   ....  ...         .      ....   ....  ...   ",
"  ....               .   ....     ....               .   ....   ",
".   .   .   .            .....  .   .   .   .            .....  ",
".       ..    ....     .......  .       ..    ....     .......  ",
"      ......    ......  ...           ......    ......  ...     ",
"            .                               .                   ",
"                              ..                              ..",
".........     .               ...........     .               ..",
"....          ...     ....      ....          ...     ....      ",
"  .             ............      .             ............    ",
"     .........    ...                .........    ...           ",
"..  ....       .   .            ..  ....       .   .            ",
"    ..               ...   ....     ..               ...   .... ",
"    ..                      ......        ..         ...   .... ",
".      .                     ....      .                     ...",
"             ... .  .......                  ... .  .......     ",
"              . .    ......                   . .    ......     ",
"    ...           ..  .....         ...           ..  .....     ",
".. . .....     . ...   ..  ... ... . .....     . ...   ..  ... .",
".          .... .              ..          .... .              .",
"             .  .              .             .  .              .",
" ..              ....    .       ..              ....    .      ",
" ..   ..   ..    ......     ..   ..   ..   ..    ......     ..  ",
"       ..        ...       .....       ..        ...       .....",
"         ..     .         .... .         ..     .         .... .",
" ......  ...   ..    ...    ...  ......  ...   ..    ...    ... ",
" . ........    . .......         . ........    . .......        ",
"     ...         ....                ...         ....           ",
"....                         .......                         ..."
};
