/* XPM */
static char *ground_b[] = {
/* columns rows colors chars-per-pixel */
"96 96 12 1 ",
"  c #40360F",
". c #4A3E13",
"X c #524513",
"o c #5D4F19",
"O c #6C5B1D",
"+ c #4E6618",
"@ c #4C611F",
"# c #425025",
"$ c #485B21",
"% c #526626",
"& c #587024",
"* c #60792A",
/* pixels */
"&%%%%*&&&&@@@@@@+&&**&&%%%++++**&%%%%*&&&&@@&&&@+&&**&&%%%******&%%%%*&&&&@@&&&@+&&**&&%%%******",
"*&&&*@@********&&@@&&%++@@*&&&*..&&&....****...&&@@&&%++@@*&&&.oX...*@X********&&@@&&%++@@*&&&*&",
"&@*****@@@&*&&&&@&&*%&&&&&@...XX....X.X.....XXX.X...%&&&&&....XoOoXXXXXX........@&&&%&&&&&@%%&&&",
"&&**@@@****&..*&%&*%*&*....XXXXXX..XOOOXXXXXooooXX.X.......XXXXOoooooooooooXXXXX.*&%*&*&&*&&&&&&",
"@@&&&&&&&&&&&X...X..&.%.XXooooooOooooOOOOOOoooOOOOOoooXXXXooOOOooOOooOOOOOoooooXX*X.&@&@@%&&&&+&",
"**&&*@@&.&&@*@XOOOXX%.XXXXXooooOooOOooOOOOOoooooooooOOOooooOOOooOOOoooOOooOOOoOOOoOX*.&&&@@****+",
"***&&@X&.**@@XXOOoooXXXooooOOOOooOOOoooOOooOOOoOOOoOoOOOOOoooooOooooooooooooooOOooooXX.&&&&%%%%%",
"**&@&&XX..@..XoOoooooooooooooOooOooooooooooooooOOooooooooooOOOOOooooooooooooooOoooooooX*%%&&&&&&",
"**&&&@&@XX.XXooooOOoooooooooooooOooooooooooooooOoooooooooooooOooOOOOooooOoooooooOOoooooX.&&&***&",
"&&&...@XoXoXOOoooOOoooOOoooOOooooOOOOooooOoooooooOOoooooooooooooOOOOOOoooooOOoooOOoooOOoX*&&&&&*",
"&&&XooXooooOOOOOoooooooOOooooooooOOOOOOoooooOOoooOOoooOOoooOOoooOOOoooooooOOOOOoooooooOOoX.*&++&",
"&&%%.oooooOOOOoOoooooooooOOooooooOOOoooooooOOOOOoooooooOOooooooOoooooooooOOOOoOoooooooooOOX&++&&",
"*&&.XOOOooooOOOooOOOOOOooOOOoooOOoooooooooOOOOoOoooooooooOOooooOooooOOOooooOOOooOOOOOOooOOX++**&",
"***@OOOOoooooooooOoOOOOOOOOooooOOooooOOOooooOOOooOOOOOOooOOOooooOOOOOOOoooooooooOoOOOOOOOOoX&&+&",
"**&.Ooo%oooooooooooooOOOoooooooooOOOOOOOoooooooooOoOOOOOOOOoooooOOOOooooooooooooooooOOOoooo***&&",
"&&*@oooooooooOOOOOOOoooooooooooooOOOOooooooooooooooooOOOooooooooooooooooooooOOOOOOOooooooo.+++&&",
"+&.oooooooOoOOOOOOOOOooOOOoooooooooooooooooooOOOOOOOoooooooooooooooooooooOoOOOOOOOOOooOOOo.@@@@@",
"&@.oooooooooooOOOOOoooooOoooooooooooooooooOoOOOOOOOOOooOOOoooooooooooooooooooOOOOOoooooOoo. ***&",
"@&.OOoOOoooOoooOoooooooooooOOOOOooooooooooooooOOOOOoooooOoooooooooOOoOOoooOoooOoooooooooooO...&&",
"%&*.OOOOooOOOoooooooooOooooooOOOoooOOoOOoooOoooOoooooooooooOOOOOoooOOOOooOOOoooooooooOooooooX**&",
"*%*&oOoooOOOOoooooOOOOooooooooooOoooOOOOooOOOoooooooooOooooooOOoooooOoooOOOOoooooOOOOooooooo &&&",
"%%%@oooooOOOOOooOoooOoooOoooOooooooooOoooOOOOoooooOOOOooooooooooooooooooOOOOOooOoooOoooOoooO.%%&",
"***&oooOOOOOOOooOoooooooOOooooOOoooooooooOOOOOooOoooOoooOoooOooOOoooooOOOOOOOooOoooooooOOoooX%*&",
"&&%.OOooOOOoooooooooooOOOOOOooooOOoooooOOOOOOOooOoooooooOOooooOOOOOOOooOOOoooooooooooOOOOOOoo&&&",
"&&&.ooooooooooooooooooooooooOoooOOOOOOooOOOoooooooooooOOOOOOoooooooooooooooooooooooooooooooOo &&",
"&@..ooooooooooOOooooooooooooooooooooooooooooooooooooooooooooOooooooooooooooooOOoooooooooooooo.**",
"++.oooooooooooOOOOOOOOOOOoooooOoooooooooooooooOOoooooooooooooooooooooooooooooOOOOOOOOOOOoooooX@&",
"&&.oooOOOOooooooOOOOooooooooooOOooooooooooooooOOOOOOOOOOOoooooOOoooooOOOOooooooOOOOooooooooooX%%",
"&.OOOOOOOOOOooooooOoooooooooooooOoooooOOOOooooooOOOOooooooooooOOOOOOOOOOOOOooooooOoooooooooooo &",
"+.OOOooooooooooooooooOOOOOOOOOooOOOOOOOOOOOOooooooOooooooooooooooOOOooooooooooooooooOOOOOOOOOoX&",
"&.oOooooooooooooOOooOOOOoooooooOooOOOooooooooooooooooOOOOOOOOOooooOooooooooooooOOooOOOOoooooooX&",
"&.oooOOOoooOOOOoooooOOoooooooooooooOooooooooooooOOooOOOOooooooooooooOOOoooOOOOoooooOO*ooooooooo&",
"& XXooooooooOOOOOOooooooooOOoooooooooOOOoooOOOOoooooOOooooooooooooooooooooooOOOOOOooooooooOOooX*",
"*#.XoooooooooOOOOooooooOoooooooooooooooooooooOOOOooooooOoooooooooooooooooooooOOOOooooooOoooooo &",
"&#.XOOOOOOOooooooooooooooooooOOOoOooOOOOOOOooooooooooooooooooOOOoOooOOOOOOOooooooooooooooooooo&&",
"&#.XoOOOOOOoooooooooooooooooooOoOooooOOOOOOoooooooooooooooooooOoOooooOOOOOOooooooooooooooooooX&&",
"@ XoooOOOOOoooooooooOOOoooooooooooOOooOOOOOoooooooooOOOoooooooooooOOooOOOOOoooooooooOOOooooooX+&",
"* XXoooOOooOOOoOOOoOoOOOOOoooooOoOOOoooOOooOOOoOOOoOoOOOOOoooooOoOOOoooOOooOOOoOOOoOoOOOOOooo**+",
"** XXooooooooooOOooooooooooOOOOoOooooooooooooooOOooooooooooOOOOoOooooooooooooooOOooooooooooOX%%%",
"&& XoooooooooooOoooooooooooooOooOooooooooooooooOoooooooooooooOooOooooooooooooooOooooooooooooX.&&",
"** .oooooOoooooooOOooooooooooooooOOOOooooOoooooooOOooooooooooooooOOOOooooOoooooooOOoooooooooX.*&",
"&&#XoOOoooooOOoooOOoooOOoooOOooooOOOOOOoooooOOoooOOoooOOoooOOooooOOOOOOoooooOOoooOOoooOOoooOOX&*",
"&& .oooooooOOOOOoooooooOOooooooooOOOoooooooOOOOOoooooooOOooooooooOOOoooooooOOOOOoooooooOOooooo.&",
"&&#XooooooOOOOoOoooooooooOOoooooOoooooooooOOOOoOoooooooooOOoooooOoooooooooOOOOoOoooooooooOOoo.&&",
"*# XoOOOooooOOOooOOOOOOooOOOoooOOooooOOOooooOOOooOOOOOOooOOOoooOOooooOOOooooOOOooOOOOOOooOOOo.*&",
"# XXoOOOoooooooooOoOOOOOOOOooooOoOOOOOOOoooooooooOoOOOOOOOOooooOoOOOOOOOoooooooooOoOOOOOOOOo..+&",
"# .XoooooooooooooooooOOOoooooooooOOOOooooooooooooooooOOOoooooooooOOOOooooooooooooooooOOOoooo. &&",
"# .XXooooooooOOOOOOOoooooooooooooooooooooooooOOOOOOOoooooooooooooooooooooooooOOOOOOOooooooooX.&&",
"# XXXoooooOoOOOOOOOOOooOOOooooooooooooooooOoOOOOOOOOOooOOOooooooooooooooooOoOOOOOOOOOooOOOooX.@@",
"#.XXooooooooooOOOOOoooooOoooooooooooooooooooooOOOOOoooooOoooooooooooooooooooooOOOOOoooooOoooXX.&",
"#..XXoOOoooOoooOoooooooooooOOOOOoooOOoOOoooOoooOoooooooooooOOOOOoooOOoOOoooOoooOoooooooooooOOXX&",
"%&.XOOOOooOOOoooooooooOooooooOOOOoooOOOOooOOOoooooooooOooooooOOOOoooOOOOooOOOoooooooooOooooooX &",
"%%#XoOoooOOOOoooooOOOOoooooooooooooooOoooOOOOoooooOOOOoooooooooooooooOoooOOOOoooooOOOOooooooX &&",
"%%#XoooooOOOOOooOoooOoooOoooOooooooooooooOOOOOooOoooOoooOoooOooooooooooooOOOOOooOoooOoooOoooX.%&",
"*# XXooOOOOOOOooOoooooooOOooooOOOOoooooOOOOOOOooOoooooooOOooooOOOOoooooOOOOOOOooOoooooooOOooX..&",
"&&#.XOooOOOoooooooooooOOOOOOooooOOOOOOooOOOoooooooooooOOOOOOooooOOOOOOooOOOoooooooooooOOOOOOXX &",
"&&&.XoooooooooooooooooooooooOoooooooooooooooooooooooooooooooOoooooooooooooooooooooooooooooooOX.&",
"&@@.XoooooooooOOooooooooooooooooooooooooooooooOOooooooooooooooooooooooooooooooOOooooooooooooX.**",
"++#.XoooooooooOOOOOOOOOOOoooooOoooooooooooooooOOOOOOOOOOOoooooOoooooooooooooooOOOOOOOOOOOoooX.@&",
"&#  XooOOOooooooOOOOooooooooooOOOoooooOOOOooooooOOOOooooooooooOOOoooooOOOOooooooOOOOoooooooX .%%",
"&#. XoOOOOOOooooooOoooooooooooooOOOOOOOOOOOOooooooOoooooooooooooOOOOOOOOOOOOooooooOooooooooooX&&",
"++.XXooooooooooooooooOOOOOOOOOooooOOOooooooooooooooooOOOOOOOOOooooOOOooooooooooooooooOOOOOOOoo.@",
"&&.XooooooooooooOOooOOOOoooooooOoooOooooooooooooOOooOOOOoooooooOoooOooooooooooooOOooOOOOoooooo.@",
"&%XXoOOOoooOOOOoooooOOoooooooooooooooOOOoooOOOOoooooOOoooooooooooooooOOOoooOOOOoooooOOoooooooo.&",
"*&XXoOOOoooOOOOoooooOOooooooooooooooooooooooOOOOOOooooooooOOoooooooooOOOoooOOOOoooooOOoooooooo**",
"&&XXoooooooooOOOOooooooOoooooooooooooooooooooOOOOooooooOoooooooooooooooooooooOOOOooooooOoooooo*&",
"&&.XOOOOOOOooooooooooooooooooOOOoOooOOOOOOOooooooooooooooooooOOOoOooOOOOOOOoooooooooooooooooo.&&",
"@@&XXOOOOOOoooooooooooooooooooOoOooooOOOOOOoooooooooooooooooooOoOooooOOOOOOoooooooooooooooooo.&&",
"**&XXoOOOOOoooooooooOOOoooooooooooOOooOOOOOoooooooooOOOoooooooooooOOooOOOOOoooooooooOOOoooooo.+&",
"*** XXoOOooOOOoOOOoOoOOOOOoooooOoOOOoooOOooOOOoOOOoOoOOOOOoooooOoOOOoooOOooOOOoOOOoOoOOOOOoo.**+",
"&&&@XXoooooooooOOooooooooooOOOOoOooooooooooooooOOooooooooooOOOOoOooooooooooooooOOooooooooooO.%%%",
"**&%  XooooooooOoooooooooooooOooOooooooooooooooOoooooooooooooOooOooooooooooooooOoooooooooooo.&&&",
"&&**%%XXoOoooooooOOooooooooooooooOOOOooooOoooooooOOooooooooooooooOOOOooooOoooooooOOooooooooo.**&",
"&&&&** XooooOOoooOOoooOOoooOOooooOOOOOOoooooOOoooOOoooOOoooOOooooOOOOOOoooooOOoooOOoooOOoooO &&*",
"&&%%&**XoooOOOOOoooooooOOooooooooOOOoooooooOOOOOoooooooOOooooooooOOOoooooooOOOOOoooooooOOoo..++&",
"*&&&&.XoooOOOOoOoooooooooOOoooooOoooooooooOOOOoOoooooooooOOoooooOoooooooooOOOOoOoooooooooOO.++&&",
"*****XXOooooOOOooOOOOOOooOOOoooOOooooOOOooooOOOooOOOOOOooOOOoooOOooooOOOooooOOOooOOOOOOooOO +**&",
"%*&&&XOOoooooooooOoOOOOOOOOooooOoOOOOOOOoooooooooOoOOOOOOOOooooOoOOOOOOOoooooooooOoOOOOOOO.&&&+&",
"%&**%%XooooooooooooooOOOoooooooooOOOOooooooooooooooooOOOoooooooooOOOOooooooooooooooooOOOo ****&&",
"+&&**& ooooooOOOOOOOoooooooooooooooooooooooooOOOOOOOoooooooooooooooooooooooooOOOOOOOooooo.++++&&",
"&&&&&% oooOoOOOOOOOOOooOOOooooooooooooooooOoOOOOOOOOOooOOOooooooooooooooooOoOOOOOOOOOooOOO.@@@@@",
"&&&*%& oooooooOOOOOoooooOoooooooooooooooooooooOOOOOoooooOoooooooooooooooooooooOOOOOoooooOo.****&",
"%&*%*&XOoooOoooOoooooooooooOOOOOoooOOoOOoooOoooOoooooooooooOOOOOoooOOoOOoooOoooOooooooooooo &&&&",
"%%*&&  OooOOOoooooooooOooooooOOOOoooOOOOooOOOoooooooooOooooooOOOOoooOOOOooOOOoooooooooOooo..&**&",
"%%%@% .ooOOOOoooooOOOOoooooooooooooooOoooOOOOoooooOOOOoooooooooooooooOoooOOOOoooooOOOOoooo..*&&&",
"***&&..ooOOOOOooOoooOoooOoooOooooooooooooOOOOOooOoooOoooOoooOooooooooooooOOOOOooOoooOoooOo &&%%&",
"&&%%%&.XoOOOOOooOoooooooOOooooOOOOoooooOOOOOOOooOoooooooOOooooOOOOoooooOOOOOOOooOoooooooOOX&*%*&",
"&&&&&&  XoooooooooooooOOOOOOooooOOOOOOooOOOoooooooooooOOOOOOooooOOOOOOooOOOoooooooooooOOOXX&&&&&",
"&@@@@** XXooooooooooooooooooOoooooooooooooooooooooooooooooooOoooooooooooooooooooooooooooXX**&&&&",
"++&&&&&&..XXooOOooooooooooooooooooooooooooooooOOooooooooooooooooooooooooooooooO.ooooooooX@&&&***",
"&&*&&@@&&  ......OOOOOOOOoooooOoooooooooooooooOOOOOOOOOOOoooooOooooooooooooo.o.+..O.OOXXX&&@@@@&",
"&&*******&&++**+..OOooooooooooOOOoooooOOOOooooooOOOO..ooooooooOOOoooooOooOo.+ o.++#..X****&&%%%%",
"++&&&&&+++&&&&+&**.oooooooo*ooooOOOOOOOOOOOOooooooO.##.oooooooooOOOOOoooo...++*&&*&## %%&&**&&&&",
"&&****&&&&****&&**&&&&.oo...*...o..#.#&...oooo....#.*#.oo....OooooOO......&&&&+&*****&&&&&&&&&&&",
"&&&&&++++&&&&&&&&&**********&&&&.#**$#&.##..#.##**&%%&%..#*#*........++..&****&&**&&&&%%%%*****&",
"&&&&&++++&&&&&&&&&*******$+++&&&&&&&&$++&$$+&$$&%%%**%%*****&#&#&&&&&++++&&&&&&&&&**********&&&&"
};
